<svg xmlns="http://www.w3.org/2000/svg" width="49.616" height="49.616" viewBox="0 0 49.616 49.616">
  <path id="Icon_awesome-behance-square" data-name="Icon awesome-behance-square" d="M20.655,31.156c0,2.137-1.551,2.813-3.455,2.813H12.2V28.11H17.3C19.359,28.121,20.655,28.974,20.655,31.156ZM19.8,22.041c0-1.96-1.517-2.425-3.2-2.425H12.216v4.962h4.729c1.672,0,2.857-.731,2.857-2.536ZM34.454,24.61A3.3,3.3,0,0,0,30.944,27.9h6.889C37.644,25.851,36.581,24.61,34.454,24.61ZM49.616,7.566V46.55A5.317,5.317,0,0,1,44.3,51.866H5.316A5.317,5.317,0,0,1,0,46.55V7.566A5.317,5.317,0,0,1,5.316,2.25H44.3A5.317,5.317,0,0,1,49.616,7.566ZM30.091,19.195h8.616V17.1H30.091ZM25.329,31.411c0-2.669-1.263-4.973-3.876-5.715,1.9-.908,2.9-1.96,2.9-4.1,0-4.231-3.156-5.261-6.8-5.261H7.531V37.6H17.842C21.707,37.579,25.329,35.73,25.329,31.411Zm16.757-1.639c0-4.552-2.669-8.351-7.487-8.351-4.7,0-7.874,3.522-7.874,8.151,0,4.8,3.023,8.085,7.874,8.085,3.677,0,6.058-1.65,7.21-5.183H38.076c-.41,1.318-2.06,2-3.345,2-2.481,0-3.777-1.451-3.777-3.909h11.1C42.063,30.314,42.085,30.037,42.085,29.771Z" transform="translate(0 -2.25)" fill="#4a4a4a"/>
</svg>
