<svg xmlns="http://www.w3.org/2000/svg" xmlns:xlink="http://www.w3.org/1999/xlink" width="509" height="169" viewBox="0 0 509 169">
  <defs>
    <filter id="Rectangle_2" x="0" y="0" width="509" height="169" filterUnits="userSpaceOnUse">
      <feOffset dy="4" input="SourceAlpha"/>
      <feGaussianBlur stdDeviation="3" result="blur"/>
      <feFlood flood-opacity="0.259"/>
      <feComposite operator="in" in2="blur"/>
      <feComposite in="SourceGraphic"/>
    </filter>
  </defs>
  <g id="Ui_designer" data-name="Ui designer" transform="translate(8.783 5)">
    <g id="Group_114" data-name="Group 114" transform="translate(0 0)">
      <g transform="matrix(1, 0, 0, 1, -8.78, -5)" filter="url(#Rectangle_2)">
        <rect id="Rectangle_2-2" data-name="Rectangle 2" width="491" height="151" rx="22" transform="translate(9 5)" fill="#fff"/>
      </g>
      <g id="Group_113" data-name="Group 113" transform="translate(36.146 22.77)">
        <g id="Group_112" data-name="Group 112" transform="translate(121.583 13.415)">
          <text id="Motion_Designer" data-name="Motion Designer" transform="translate(0.488 24.815)" fill="#4a4a4a" font-size="24" font-family="Poppins-SemiBold, Poppins" font-weight="600"><tspan x="0" y="0">Motion Designer</tspan></text>
          <text id="Move_with_motion." data-name="Move with motion." transform="translate(0.488 69.815)" fill="#4a4a4a" font-size="19" font-family="Poppins-Medium, Poppins" font-weight="500"><tspan x="0" y="0">Move with motion.</tspan></text>
        </g>
        <g id="motion-graphics">
          <path id="Path_29" data-name="Path 29" d="M231.365,297.58H194.523v-2.087a4.1,4.1,0,0,0,1.064-.642l2.269-1.9a2.83,2.83,0,0,0,1.016-2.175V285a2.84,2.84,0,0,0-2.837-2.837h-6.163A2.84,2.84,0,0,0,187.035,285v5.782a2.83,2.83,0,0,0,1.016,2.175l2.27,1.9a4.1,4.1,0,0,0,1.063.641v2.087H174.405a3.112,3.112,0,0,0-3.108,3.108v4.4a3.112,3.112,0,0,0,3.108,3.108h16.979v4.28H174.405a3.112,3.112,0,0,0-3.108,3.108v4.4a3.112,3.112,0,0,0,3.108,3.108h16.979v5.578a1.569,1.569,0,0,0,3.138,0V323.1h36.843a3.112,3.112,0,0,0,3.108-3.108v-4.4a3.112,3.112,0,0,0-3.108-3.108H194.523V308.2h36.843a3.112,3.112,0,0,0,3.108-3.108v-4.4a3.112,3.112,0,0,0-3.108-3.108Zm-41.192-6.944V285.3h5.561v5.34l-2.161,1.809a.963.963,0,0,1-.613.225h-.013a.961.961,0,0,1-.612-.224ZM174.435,319.96v-4.343h16.949v4.343Zm56.9,0H210.666v-4.343h20.669Zm-23.808-4.343v4.343h-13v-4.343Zm-33.092-10.556v-4.343h16.949v4.343Zm20.088-4.343h22.466v4.343H194.523Zm36.812,4.343H220.127v-4.343h11.208Z" transform="translate(-143.563 -223.125)" fill="#4a61f8"/>
          <path id="Path_30" data-name="Path 30" d="M57.349,355.871H41.771a3.037,3.037,0,0,0-3.033,3.033v4.553a3.037,3.037,0,0,0,3.033,3.033H57.349a3.036,3.036,0,0,0,3.033-3.033V358.9A3.036,3.036,0,0,0,57.349,355.871Zm-.105,7.481H41.876v-4.343H57.244Z" transform="translate(-38.738 -281.416)" fill="#4a61f8"/>
          <path id="Path_31" data-name="Path 31" d="M57.349,427.085H41.771a3.037,3.037,0,0,0-3.033,3.033v4.553a3.037,3.037,0,0,0,3.033,3.033H57.349a3.036,3.036,0,0,0,3.033-3.033v-4.553A3.036,3.036,0,0,0,57.349,427.085Zm-.105,7.481H41.876v-4.343H57.244Z" transform="translate(-38.738 -337.731)" fill="#4a61f8"/>
          <path id="Path_32" data-name="Path 32" d="M122.183,0H46.2a7.474,7.474,0,0,0-7.466,7.465V47.225A7.474,7.474,0,0,0,46.2,54.69H56.817a1.569,1.569,0,0,0,0-3.138H46.2a4.332,4.332,0,0,1-4.327-4.327V7.465A4.332,4.332,0,0,1,46.2,3.138h75.979a4.332,4.332,0,0,1,4.327,4.327V47.225a4.332,4.332,0,0,1-4.327,4.327H63.094a1.569,1.569,0,0,0,0,3.138h59.089a7.474,7.474,0,0,0,7.466-7.465V7.465A7.474,7.474,0,0,0,122.183,0Z" transform="translate(-38.738)" fill="#4a61f8"/>
          <path id="Path_33" data-name="Path 33" d="M343.7,89.419a8.824,8.824,0,1,0-8.824,8.824A8.834,8.834,0,0,0,343.7,89.419Zm-14.509,0a5.685,5.685,0,1,1,5.685,5.686A5.692,5.692,0,0,1,329.2,89.419Z" transform="translate(-265.945 -63.733)" fill="#4a61f8"/>
          <path id="Path_34" data-name="Path 34" d="M142.356,78.523a21.429,21.429,0,0,0-15.569,6.772,28.909,28.909,0,0,0-25.005-14.382,1.569,1.569,0,0,0,0,3.138,25.7,25.7,0,0,1,13.945,4.092,26.07,26.07,0,0,1,9.354,10.626,1.572,1.572,0,0,0,2.672.254,18.278,18.278,0,0,1,14.6-7.362,1.569,1.569,0,1,0,0-3.138Z" transform="translate(-87.351 -56.077)" fill="#4a61f8"/>
          <path id="Path_35" data-name="Path 35" d="M247.531,138.541a14.782,14.782,0,0,0-14.261,10.882,1.569,1.569,0,1,0,3.028.826,11.643,11.643,0,0,1,11.233-8.57,1.569,1.569,0,1,0,0-3.138Z" transform="translate(-192.526 -109.556)" fill="#4a61f8"/>
          <path id="Path_36" data-name="Path 36" d="M101.782,105.308a19.287,19.287,0,0,1,18.982,16.028,1.569,1.569,0,0,0,3.094-.524,22.425,22.425,0,0,0-22.076-18.643,1.569,1.569,0,1,0,0,3.138Z" transform="translate(-87.351 -80.794)" fill="#4a61f8"/>
        </g>
      </g>
    </g>
  </g>
</svg>
