<svg xmlns="http://www.w3.org/2000/svg" width="120.295" height="87.177" viewBox="0 0 120.295 87.177">
	<g id="Group_187" data-name="Group 187" transform="translate(-87.153 -211.823)">
		<g id="Group_120" data-name="Group 120" transform="translate(107.781 211.823)">
			<path id="Path_37" data-name="Path 37" d="M290.235,237l-11.389-19.762.005-.01-3.127-5.406-3.16,5.485h0l-30.1,52.24h6.528l26.731-46.839,8.376,14.317Z" transform="translate(-242.464 -211.823)" fill="#fcb129"/>
			<path id="Path_38" data-name="Path 38" d="M397.37,272.132l6.026-.053L369.949,215.1l-2.625,4.866,14.654,25.444H358.023l2.777-4.815-2.98-4.252L336.9,272.078l5.756-.03,12.571-21.795h29.541Z" transform="translate(-324.358 -214.663)" fill="#4a61f8"/>
			<path id="Path_39" data-name="Path 39" d="M500.823,521.723l-.591-1.029H477.651l-3.625,5.57h23.111l6.548,11.125,6.105-.016Z" transform="translate(-443.27 -479.669)" fill="#fcb129"/>
		</g>
		<g id="Group_123" data-name="Group 123" transform="translate(87.153 277.995)">
			<g id="Group_121" data-name="Group 121">
				<path id="Path_40" data-name="Path 40" d="M95.6,720.283,94.673,718H90.368l-.931,2.283H87.153l4.364-10.255h2.066l4.364,10.255Zm-3.083-7.563-1.353,3.3h2.705Z" transform="translate(-87.153 -710.028)" fill="#fcb129"/>
				<path id="Path_41" data-name="Path 41" d="M185.132,720.758h-4.844V710.576h4.727c2.08,0,3.36,1.033,3.36,2.633v.029a2.368,2.368,0,0,1-1.338,2.2,2.489,2.489,0,0,1,1.906,2.5v.029C188.943,719.827,187.43,720.758,185.132,720.758Zm1.018-7.171c0-.669-.524-1.047-1.469-1.047H182.47v2.153h2.066c.989,0,1.614-.32,1.614-1.076Zm.567,4.072c0-.683-.509-1.106-1.658-1.106H182.47v2.24h2.662c.989,0,1.585-.349,1.585-1.106Z" transform="translate(-167.918 -710.503)" fill="#fcb129"/>
				<path id="Path_42" data-name="Path 42" d="M263.374,720.758H259.4V710.576h3.97a5.075,5.075,0,0,1,5.411,5.062v.029A5.1,5.1,0,0,1,263.374,720.758Zm3.07-5.091a2.925,2.925,0,0,0-3.07-3.069h-1.73v6.139h1.73a2.9,2.9,0,0,0,3.07-3.04Z" transform="translate(-236.526 -710.503)" fill="#fcb129"/>
				<path id="Path_43" data-name="Path 43" d="M341.492,720.283,340.561,718h-4.305l-.931,2.283h-2.283l4.363-10.255h2.065l4.363,10.255Zm-3.083-7.563-1.354,3.3h2.706Z" transform="translate(-300.383 -710.028)" fill="#fcb129"/>
				<path id="Path_44" data-name="Path 44" d="M426.171,720.758V710.576h2.24v8.146h5.076v2.037Z" transform="translate(-381.142 -710.503)" fill="#fcb129"/>
				<path id="Path_45" data-name="Path 45" d="M500.177,720.758,498,717.5h-1.76v3.258h-2.24V710.576h4.655c2.4,0,3.84,1.266,3.84,3.36v.029a3.161,3.161,0,0,1-2.182,3.156l2.487,3.637Zm.044-6.705c0-.96-.669-1.455-1.76-1.455h-2.225v2.924H498.5c1.091,0,1.716-.582,1.716-1.44Z" transform="translate(-439.958 -710.503)" fill="#fcb129"/>
				<path id="Path_46" data-name="Path 46" d="M575.1,720.283,574.166,718H569.86l-.931,2.283h-2.284l4.363-10.255h2.065l4.363,10.255Zm-3.083-7.563-1.354,3.3h2.706Z" transform="translate(-502.96 -710.028)" fill="#fcb129"/>
				<path id="Path_47" data-name="Path 47" d="M666.156,720.758v-4.087h-4.131v4.087h-2.24V710.576h2.24v4.029h4.131v-4.029h2.24v10.182Z" transform="translate(-583.728 -710.503)" fill="#fcb129"/>
				<path id="Path_48" data-name="Path 48" d="M751.017,720.758v-6.647l-2.865,4.349h-.058l-2.836-4.305v6.6h-2.2V710.576h2.414l2.677,4.306,2.677-4.306h2.415v10.182Z" transform="translate(-655.944 -710.503)" fill="#fcb129"/>
				<path id="Path_49" data-name="Path 49" d="M840.041,720.283,839.11,718H834.8l-.931,2.283H831.59l4.363-10.255h2.065l4.363,10.255Zm-3.083-7.563-1.354,3.3h2.706Z" transform="translate(-732.714 -710.028)" fill="#fcb129"/>
				<path id="Path_50" data-name="Path 50" d="M931.871,720.758l-4.932-6.473v6.473h-2.21V710.576h2.066l4.771,6.27v-6.27h2.211v10.182Z" transform="translate(-813.482 -710.503)" fill="#fcb129"/>
			</g>
			<g id="Group_122" data-name="Group 122" transform="translate(0 14.047)">
				<path id="Path_51" data-name="Path 51" d="M94.2,822.953H92.944l-.685-1.631H89.064l-.7,1.631H87.153l2.973-6.8h1.1Zm-3.542-5.385-1.158,2.7h2.326Z" transform="translate(-87.153 -816.101)" fill="#4a61f8"/>
				<path id="Path_52" data-name="Path 52" d="M183.573,816.976a1.518,1.518,0,0,1,.6,1.267,1.727,1.727,0,0,1-.081.551,1.563,1.563,0,0,1-.211.421,1.49,1.49,0,0,1-.306.314,2.52,2.52,0,0,1-.359.232,3.4,3.4,0,0,1,.542.246,1.765,1.765,0,0,1,.422.333,1.343,1.343,0,0,1,.273.458,1.786,1.786,0,0,1,.1.611,1.725,1.725,0,0,1-.179.8,1.627,1.627,0,0,1-.506.583,2.354,2.354,0,0,1-.79.356,4.065,4.065,0,0,1-1.022.12H178.93v-6.756h3.025A2.573,2.573,0,0,1,183.573,816.976Zm-.927,2.165a.783.783,0,0,0,.346-.7.76.76,0,0,0-.3-.646,1.447,1.447,0,0,0-.88-.228h-1.7v1.8h1.616A1.656,1.656,0,0,0,182.646,819.141Zm.376,2.839a.793.793,0,0,0,.346-.7.779.779,0,0,0-.342-.676,1.821,1.821,0,0,0-1.044-.241h-1.877v1.853h1.963A1.667,1.667,0,0,0,183.023,821.98Z" transform="translate(-166.74 -816.416)" fill="#4a61f8"/>
				<path id="Path_53" data-name="Path 53" d="M266.379,820.344a3.837,3.837,0,0,1-.207,1.322,2.554,2.554,0,0,1-.584.951,2.338,2.338,0,0,1-.912.57,3.6,3.6,0,0,1-1.2.188,3.534,3.534,0,0,1-1.186-.188,2.4,2.4,0,0,1-.908-.565,2.52,2.52,0,0,1-.579-.931,3.752,3.752,0,0,1-.2-1.288v-3.89h1.178v3.841a2.04,2.04,0,0,0,.457,1.438,1.637,1.637,0,0,0,1.262.493,1.657,1.657,0,0,0,1.251-.473,1.956,1.956,0,0,0,.457-1.409v-3.89h1.176Z" transform="translate(-237.561 -816.416)" fill="#4a61f8"/>
				<path id="Path_54" data-name="Path 54" d="M344.576,818a.707.707,0,0,0,.246.27,1.958,1.958,0,0,0,.494.232q.315.107.8.222a7.646,7.646,0,0,1,.944.3,2.343,2.343,0,0,1,.682.4,1.583,1.583,0,0,1,.411.55,1.785,1.785,0,0,1,.14.738,2,2,0,0,1-.177.859,1.814,1.814,0,0,1-.494.637,2.149,2.149,0,0,1-.759.4,3.322,3.322,0,0,1-.973.135,4.25,4.25,0,0,1-1.5-.266,4.1,4.1,0,0,1-1.323-.815l.715-.85a4.129,4.129,0,0,0,.993.652,2.74,2.74,0,0,0,1.139.227,1.473,1.473,0,0,0,.873-.232.733.733,0,0,0,.324-.627.828.828,0,0,0-.062-.328.664.664,0,0,0-.233-.266,1.933,1.933,0,0,0-.464-.227,7.771,7.771,0,0,0-.769-.222,8.073,8.073,0,0,1-.963-.28,2.432,2.432,0,0,1-.706-.386,1.532,1.532,0,0,1-.436-.56,1.92,1.92,0,0,1-.15-.8,1.841,1.841,0,0,1,.172-.806,1.87,1.87,0,0,1,.474-.623,2.1,2.1,0,0,1,.726-.4,2.934,2.934,0,0,1,.925-.14,3.868,3.868,0,0,1,1.337.217,3.989,3.989,0,0,1,1.115.632l-.637.9a4.152,4.152,0,0,0-.917-.517,2.486,2.486,0,0,0-.917-.178,1.247,1.247,0,0,0-.811.237.716.716,0,0,0-.29.574A.8.8,0,0,0,344.576,818Z" transform="translate(-309.078 -815.785)" fill="#4a61f8"/>
				<path id="Path_55" data-name="Path 55" d="M424.106,820.421v2.847h-1.178v-6.756h1.178v2.809h3.242v-2.809h1.178v6.756h-1.178v-2.847Z" transform="translate(-378.33 -816.416)" fill="#4a61f8"/>
				<path id="Path_56" data-name="Path 56" d="M510.862,822.953h-1.255l-.686-1.631h-3.194l-.7,1.631h-1.217l2.973-6.8h1.1Zm-3.543-5.385-1.158,2.7h2.327Z" transform="translate(-448.475 -816.101)" fill="#4a61f8"/>
				<path id="Path_57" data-name="Path 57" d="M598.923,821.608h-.039l-2.114-3.166v4.826h-1.178v-6.756h1.264l2.056,3.195,2.056-3.195h1.264v6.756h-1.177v-4.845Z" transform="translate(-528.061 -816.416)" fill="#4a61f8"/>
				<path id="Path_58" data-name="Path 58" d="M692,821.608h-.039l-2.114-3.166v4.826h-1.178v-6.756h1.264l2.056,3.195,2.056-3.195h1.264v6.756h-1.177v-4.845Z" transform="translate(-608.775 -816.416)" fill="#4a61f8"/>
				<path id="Path_59" data-name="Path 59" d="M784.442,822.953h-1.255l-.686-1.631h-3.194l-.7,1.631H777.4l2.973-6.8h1.1Zm-3.543-5.385-1.158,2.7h2.327Z" transform="translate(-685.718 -816.101)" fill="#4a61f8"/>
				<path id="Path_60" data-name="Path 60" d="M869.169,816.512h1.178V822.2H873.9v1.072h-4.729Z" transform="translate(-765.301 -816.416)" fill="#4a61f8"/>
				<path id="Path_61" data-name="Path 61" d="M946.848,822.953h-1.255l-.686-1.631h-3.194l-.7,1.631H939.8l2.973-6.8h1.1Zm-3.543-5.385-1.158,2.7h2.327Z" transform="translate(-826.553 -816.101)" fill="#4a61f8"/>
			</g>
		</g>
	</g>
</svg>