<svg xmlns="http://www.w3.org/2000/svg" width="543.908" height="405.277" viewBox="0 0 543.908 405.277">
  <g id="Designer-rafiki" transform="translate(0 -55)">
    <g id="freepik--background-complete--inject-20" transform="translate(0 55)">
      <rect id="Rectangle_66" data-name="Rectangle 66" width="543.908" height="0.272" transform="translate(0 356.151)" fill="#ebebeb"/>
      <rect id="Rectangle_67" data-name="Rectangle 67" width="36.028" height="0.272" transform="translate(453.38 373.654)" fill="#ebebeb"/>
      <rect id="Rectangle_68" data-name="Rectangle 68" width="9.453" height="0.272" transform="translate(350.854 376.613)" fill="#ebebeb"/>
      <rect id="Rectangle_69" data-name="Rectangle 69" width="20.875" height="0.272" transform="translate(431.417 363.559)" fill="#ebebeb"/>
      <rect id="Rectangle_70" data-name="Rectangle 70" width="46.983" height="0.272" transform="translate(57.067 365.387)" fill="#ebebeb"/>
      <rect id="Rectangle_71" data-name="Rectangle 71" width="6.886" height="0.272" transform="translate(113.742 365.387)" fill="#ebebeb"/>
      <rect id="Rectangle_72" data-name="Rectangle 72" width="101.907" height="0.272" transform="translate(143.015 369.977)" fill="#ebebeb"/>
      <path id="Path_273" data-name="Path 273" d="M254.457,362.635H44.411a6.211,6.211,0,0,1-6.2-6.211V61.157A6.211,6.211,0,0,1,44.411,55H254.457a6.211,6.211,0,0,1,6.211,6.211V356.423A6.211,6.211,0,0,1,254.457,362.635ZM44.411,55.218a5.939,5.939,0,0,0-5.929,5.939V356.423a5.939,5.939,0,0,0,5.929,5.939H254.457a5.95,5.95,0,0,0,5.939-5.939V61.157a5.95,5.95,0,0,0-5.939-5.939Z" transform="translate(3.355 -55)" fill="#ebebeb"/>
      <path id="Path_274" data-name="Path 274" d="M470.769,362.635H260.711a6.222,6.222,0,0,1-6.211-6.211V61.157A6.222,6.222,0,0,1,260.711,55H470.769a6.211,6.211,0,0,1,6.19,6.157V356.423A6.211,6.211,0,0,1,470.769,362.635ZM260.711,55.218a5.95,5.95,0,0,0-5.94,5.939V356.423a5.95,5.95,0,0,0,5.94,5.939H470.769a5.95,5.95,0,0,0,5.939-5.939V61.157a5.95,5.95,0,0,0-5.939-5.939Z" transform="translate(22.349 -55)" fill="#ebebeb"/>
      <rect id="Rectangle_73" data-name="Rectangle 73" width="20.255" height="139.099" transform="translate(75.625 356.151) rotate(180)" fill="#e6e6e6"/>
      <path id="Path_275" data-name="Path 275" d="M58.025,384.534H50.9V358.1H65.509Z" transform="translate(4.47 -28.383)" fill="#f0f0f0"/>
      <rect id="Rectangle_74" data-name="Rectangle 74" width="20.255" height="139.099" transform="translate(289.838 356.151) rotate(180)" fill="#e6e6e6"/>
      <rect id="Rectangle_75" data-name="Rectangle 75" width="220.435" height="131.887" transform="translate(275.805 348.928) rotate(180)" fill="#f0f0f0"/>
      <path id="Path_276" data-name="Path 276" d="M247.594,384.534h7.125V358.1H240.11Z" transform="translate(21.086 -28.383)" fill="#f0f0f0"/>
      <path id="Path_277" data-name="Path 277" d="M249.867,374.255H189.037a2.817,2.817,0,0,1-2.807-2.807V266.866a2.806,2.806,0,0,1,2.807-2.8h60.831a2.8,2.8,0,0,1,2.8,2.8V371.448a2.807,2.807,0,0,1-2.8,2.806Zm-60.831-109.1a1.708,1.708,0,0,0-1.719,1.708V371.448a1.719,1.719,0,0,0,1.719,1.719h60.831a1.708,1.708,0,0,0,1.708-1.719V266.866a1.708,1.708,0,0,0-1.708-1.708Z" transform="translate(16.354 -36.64)" fill="#fff"/>
      <path id="Path_278" data-name="Path 278" d="M185.316,374.255H124.486a2.807,2.807,0,0,1-2.8-2.807V266.866a2.8,2.8,0,0,1,2.8-2.8h60.831a2.807,2.807,0,0,1,2.807,2.8V371.448a2.817,2.817,0,0,1-2.807,2.806Zm-60.831-109.1a1.708,1.708,0,0,0-1.708,1.708V371.448a1.708,1.708,0,0,0,1.708,1.719h60.831a1.719,1.719,0,0,0,1.719-1.719V266.866a1.708,1.708,0,0,0-1.719-1.708Z" transform="translate(10.686 -36.64)" fill="#fff"/>
      <path id="Path_279" data-name="Path 279" d="M120.766,374.255H59.936a2.807,2.807,0,0,1-2.8-2.807V266.866a2.8,2.8,0,0,1,2.8-2.8h60.831a2.807,2.807,0,0,1,2.807,2.8V371.448a2.817,2.817,0,0,1-2.807,2.806Zm-60.831-109.1a1.708,1.708,0,0,0-1.708,1.708V371.448a1.708,1.708,0,0,0,1.708,1.719h60.831a1.719,1.719,0,0,0,1.719-1.719V266.866a1.708,1.708,0,0,0-1.719-1.708Z" transform="translate(5.018 -36.64)" fill="#fff"/>
      <rect id="Rectangle_76" data-name="Rectangle 76" width="112.143" height="298.084" transform="translate(451.52 326.236) rotate(180)" fill="#e6e6e6"/>
      <rect id="Rectangle_77" data-name="Rectangle 77" width="116.886" height="298.084" transform="translate(450.737 326.236) rotate(180)" fill="#f0f0f0"/>
      <rect id="Rectangle_78" data-name="Rectangle 78" width="112.143" height="5.134" transform="translate(451.52 331.382) rotate(180)" fill="#e6e6e6"/>
      <rect id="Rectangle_79" data-name="Rectangle 79" width="116.886" height="5.134" transform="translate(441.534 331.382) rotate(180)" fill="#f0f0f0"/>
      <rect id="Rectangle_80" data-name="Rectangle 80" width="282.604" height="101.417" transform="translate(443.013 35.898) rotate(90)" fill="#fafafa"/>
      <path id="Path_280" data-name="Path 280" d="M335.26,370.6,347.65,88h21.43L356.69,370.6Z" transform="translate(29.441 -52.102)" fill="#fff"/>
      <path id="Path_281" data-name="Path 281" d="M404.047,172.666a.6.6,0,0,0,.6-.6V92.657a.6.6,0,0,0-.6-.587.587.587,0,0,0-.587.587v79.411a.6.6,0,0,0,.588.6Z" transform="translate(35.43 -51.745)" fill="#f0f0f0"/>
      <path id="Path_282" data-name="Path 282" d="M359.19,370.6,371.58,88h8.354L367.555,370.6Z" transform="translate(31.543 -52.102)" fill="#fff"/>
      <rect id="Rectangle_81" data-name="Rectangle 81" width="282.604" height="0.979" transform="translate(342.586 35.887) rotate(90)" fill="#e6e6e6"/>
      <path id="Path_283" data-name="Path 283" d="M305.23,97.853H419.168l.718-7.093H305.937Z" transform="translate(26.804 -51.86)" fill="#e0e0e0" opacity="0.5"/>
      <path id="Path_284" data-name="Path 284" d="M305.23,108.563H419.168l.718-7.093H305.937Z" transform="translate(26.804 -50.919)" fill="#e0e0e0" opacity="0.5"/>
      <path id="Path_285" data-name="Path 285" d="M305.23,119.272H419.168l.718-7.082H305.937Z" transform="translate(26.804 -49.978)" fill="#e0e0e0" opacity="0.5"/>
      <path id="Path_286" data-name="Path 286" d="M305.23,129.993H419.168l.718-7.093H305.937Z" transform="translate(26.804 -49.037)" fill="#e0e0e0" opacity="0.5"/>
      <path id="Path_287" data-name="Path 287" d="M305.23,140.7H419.168l.718-7.093H305.937Z" transform="translate(26.804 -48.097)" fill="#e0e0e0" opacity="0.5"/>
      <path id="Path_288" data-name="Path 288" d="M305.23,151.413H419.168l.718-7.093H305.937Z" transform="translate(26.804 -47.156)" fill="#e0e0e0" opacity="0.5"/>
      <rect id="Rectangle_82" data-name="Rectangle 82" width="151.566" height="84.643" transform="translate(91.997 31.536)" fill="#e6e6e6"/>
      <rect id="Rectangle_83" data-name="Rectangle 83" width="151.566" height="84.643" transform="translate(90.55 31.536)" fill="#f5f5f5"/>
      <rect id="Rectangle_84" data-name="Rectangle 84" width="62.887" height="129.809" transform="translate(231.248 42.414) rotate(90)" fill="#fff"/>
      <path id="Path_289" data-name="Path 289" d="M114.28,156.888l8.017-62.9h22.627l-8.017,62.9Z" transform="translate(10.036 -51.576)" fill="#fafafa"/>
      <path id="Path_290" data-name="Path 290" d="M140.5,156.888l8.017-62.9H161.4l-8.017,62.9Z" transform="translate(12.338 -51.576)" fill="#fafafa"/>
      <path id="Path_291" data-name="Path 291" d="M183.26,156.888l8.017-62.9h12.88l-8.017,62.9Z" transform="translate(16.093 -51.576)" fill="#fafafa"/>
      <rect id="Rectangle_85" data-name="Rectangle 85" width="62.887" height="1.425" transform="translate(102.864 42.414) rotate(90)" fill="#e6e6e6"/>
      <rect id="Rectangle_86" data-name="Rectangle 86" width="4.601" height="54.565" transform="translate(240.81 157.44)" fill="#f5f5f5"/>
      <rect id="Rectangle_87" data-name="Rectangle 87" width="1.305" height="54.565" transform="translate(243.519 157.374)" fill="#fafafa"/>
      <path id="Path_292" data-name="Path 292" d="M217.3,248.11h14.218a4.58,4.58,0,0,1,4.58,4.58v2.524H212.71V252.69a4.58,4.58,0,0,1,4.58-4.58Z" transform="translate(18.679 -38.042)" fill="#f0f0f0"/>
      <rect id="Rectangle_88" data-name="Rectangle 88" width="5.2" height="3.253" rx="0.68" transform="translate(249.828 208.687) rotate(90)" fill="#f0f0f0"/>
      <path id="Path_293" data-name="Path 293" d="M252.094,207.684H199.15l.37-1.284a27.2,27.2,0,0,1,26.108-19.581h0A27.2,27.2,0,0,1,251.735,206.4Z" transform="translate(17.489 -43.424)" fill="#e0e0e0"/>
      <rect id="Rectangle_89" data-name="Rectangle 89" width="4.601" height="54.565" transform="translate(85.307 157.44)" fill="#f5f5f5"/>
      <rect id="Rectangle_90" data-name="Rectangle 90" width="1.305" height="54.565" transform="translate(88.026 157.374)" fill="#fafafa"/>
      <path id="Path_294" data-name="Path 294" d="M74.371,248.11h14.25a4.58,4.58,0,0,1,4.58,4.58v2.524H69.77V252.69a4.58,4.58,0,0,1,4.6-4.58Z" transform="translate(6.127 -38.042)" fill="#f0f0f0"/>
      <rect id="Rectangle_91" data-name="Rectangle 91" width="5.2" height="3.253" rx="0.68" transform="translate(94.325 208.698) rotate(90)" fill="#f0f0f0"/>
      <path id="Path_295" data-name="Path 295" d="M109.155,207.684H56.2l.381-1.284A27.2,27.2,0,0,1,82.688,186.82h0A27.2,27.2,0,0,1,108.8,206.4Z" transform="translate(4.935 -43.424)" fill="#e0e0e0"/>
    </g>
    <g id="freepik--Shadow--inject-20" transform="translate(61.037 435.649)">
      <ellipse id="freepik--path--inject-20" cx="210.917" cy="12.314" rx="210.917" ry="12.314" fill="#f5f5f5"/>
    </g>
    <g id="freepik--Table--inject-20" transform="translate(117.843 137.956)">
      <path id="Path_296" data-name="Path 296" d="M316.511,164.035h0a8.964,8.964,0,0,1,0-12.651l4.242-4.242a8.964,8.964,0,0,1,12.651,0h0a8.975,8.975,0,0,1,0,12.64l-4.253,4.253a8.974,8.974,0,0,1-12.64,0Z" transform="translate(-90.278 -130.094)" fill="#ff725e"/>
      <path id="Path_297" data-name="Path 297" d="M316.511,164.035h0a8.964,8.964,0,0,1,0-12.651l4.242-4.242a8.964,8.964,0,0,1,12.651,0h0a8.975,8.975,0,0,1,0,12.64l-4.253,4.253a8.974,8.974,0,0,1-12.64,0Z" transform="translate(-90.278 -130.094)" fill="#fff" opacity="0.4"/>
      <path id="Path_298" data-name="Path 298" d="M322.062,159.261h0a11.553,11.553,0,0,1,0-16.317l8.311-8.311a11.553,11.553,0,0,1,16.317,0h0a11.542,11.542,0,0,1,0,16.317l-8.333,8.311A11.574,11.574,0,0,1,322.062,159.261Z" transform="translate(-89.857 -131.259)" fill="#ff725e"/>
      <path id="Path_299" data-name="Path 299" d="M334.685,146.773h0a19.711,19.711,0,0,0-27.8,0l27.8,27.815A19.733,19.733,0,0,0,334.685,146.773Z" transform="translate(-90.894 -130.4)" fill="#ff725e"/>
      <path id="Path_300" data-name="Path 300" d="M342.957,201.352a1.686,1.686,0,1,1,0-3.372,30.459,30.459,0,0,0,0-60.918,1.686,1.686,0,1,1,0-3.361,33.828,33.828,0,1,1,0,67.657Z" transform="translate(-87.886 -131.045)" fill="#ff725e"/>
      <path id="Path_301" data-name="Path 301" d="M387.479,421.1,348.992,238.35l-5.145,1.4,19.983,94.858-29.839,86.438H307.438l.076-1.186h-5.929l-.435,6.429h87.874l.359-5.243Zm-22.844-82.815L382.04,421.1H336Z" transform="translate(-91.397 -121.855)" fill="#ff725e"/>
      <path id="Path_302" data-name="Path 302" d="M211.308,421.1,172.865,238.4l-5.145,1.4,19.972,94.858L157.853,421.1H131.267l.087-1.186h-5.939l-.424,6.429h87.863l.359-5.243Zm-22.844-82.815L205.869,421.1H159.811Z" transform="translate(-106.867 -121.85)" fill="#ff725e"/>
      <path id="Path_303" data-name="Path 303" d="M377.1,321.78l-4.95,14.327H180.99l4.939-14.327Z" transform="translate(-101.949 -114.528)" fill="#ff725e"/>
      <path id="Path_304" data-name="Path 304" d="M369.782,331.71l2.578,3.525H181.2l-2.578-3.525Z" transform="translate(-102.157 -113.656)" fill="#ff725e"/>
      <path id="Path_305" data-name="Path 305" d="M369.782,331.71l2.578,3.525H181.2l-2.578-3.525Z" transform="translate(-102.157 -113.656)" opacity="0.2"/>
      <path id="Path_306" data-name="Path 306" d="M345.2,312.064H111.713l-3.383-3.372L408.9,180.83l3.372,3.372Z" transform="translate(-108.33 -126.906)" fill="#ff725e"/>
      <path id="Path_307" data-name="Path 307" d="M345.2,312.064H111.713l-3.383-3.372L408.9,180.83l3.372,3.372Z" transform="translate(-108.33 -126.906)" opacity="0.4"/>
      <rect id="Rectangle_92" data-name="Rectangle 92" width="13.957" height="1.088" transform="translate(33.088 110.523) rotate(-62.34)" fill="#ff725e"/>
      <rect id="Rectangle_93" data-name="Rectangle 93" width="6.636" height="1.088" transform="translate(27.874 120.46) rotate(-62.34)" fill="#ff725e"/>
      <path id="Path_308" data-name="Path 308" d="M341.819,308.692H108.33L175.416,180.83H408.9Z" transform="translate(-108.33 -126.906)" fill="#ff725e"/>
      <path id="Path_309" data-name="Path 309" d="M314.73,286.854l-165.25.587L198.366,196c39.161,2.807,97.816,3.068,161.976,1.795Z" transform="translate(-104.716 -125.574)" opacity="0.3"/>
      <path id="Path_310" data-name="Path 310" d="M312.423,287.377H148.62l47.059-89.7c50.453,1.871,104.485.674,162.683-.936C349.344,219.345,332.983,252.143,312.423,287.377Z" transform="translate(-104.792 -125.509)" fill="#fff"/>
      <g id="Group_184" data-name="Group 184" transform="translate(72.253 78.408)" opacity="0.6">
        <path id="Path_311" data-name="Path 311" d="M175.174,270.453q23.094-.131,46.189-.218l49.55-.228,24.878-.12a.424.424,0,0,0,0-.838l-46.189.218-49.55.218-24.878.12a.424.424,0,0,0,0,.849Z" transform="translate(-174.75 -197.566)" fill="#ff725e"/>
        <path id="Path_312" data-name="Path 312" d="M284.215,276.983q14.805-28.174,29.882-56.218l8.7-16.143c.261-.479-.468-.9-.729-.435q-15.229,28.033-30.1,56.218-4.275,8.083-8.507,16.154c-.25.479.468.9.729.424Z" transform="translate(-165.208 -203.28)" fill="#ff725e"/>
        <path id="Path_313" data-name="Path 313" d="M329.909,204.93q-23.2.131-46.4.218l-50.137.228-24.8.12a.424.424,0,1,0,0,.848q23.2-.131,46.4-.218l50.137-.228,24.8-.12a.424.424,0,1,0,0-.848Z" transform="translate(-171.817 -203.197)" fill="#ff725e"/>
        <path id="Path_314" data-name="Path 314" d="M214.381,203.547q-14.947,28.49-30.209,56.838-4.351,8.126-8.768,16.23c-.261.479.468.9.729.424q15.36-28.283,30.459-56.828,4.286-8.115,8.55-16.241c.261-.479-.468-.9-.729-.424Z" transform="translate(-174.697 -203.337)" fill="#ff725e"/>
        <path id="Path_315" data-name="Path 315" d="M226.436,265.485l17-33.527,4.58-9.007c.25-.479-.479-.914-.729-.424l-17.547,34.484-4.079,8c-.239.49.49.914.729.424Z" transform="translate(-170.283 -201.671)" fill="#ff725e"/>
        <path id="Path_316" data-name="Path 316" d="M189.333,263.736l9.79-19.254c.239-.49-.49-.914-.729-.435l-9.79,19.265c-.239.49.49.914.729.424Z" transform="translate(-173.538 -199.78)" fill="#ff725e"/>
        <path id="Path_317" data-name="Path 317" d="M278.063,266.548c8.148-14.7,15.338-29.9,23.062-44.829,1.893-3.655,3.807-7.31,5.809-10.878.261-.479-.468-.9-.729-.424-8.148,14.686-15.349,29.9-23.062,44.818-1.893,3.666-3.807,7.31-5.809,10.878-.261.468.457.9.729.424Z" transform="translate(-165.746 -202.734)" fill="#ff725e"/>
        <path id="Path_318" data-name="Path 318" d="M236.973,266.353c7.4-14.544,14.87-29.066,22.246-43.621l2.5-4.939,1.349-2.665.664-1.327c.185-.359.468-1.36.838-1.556a5.917,5.917,0,0,1,1.643,0h6.527q9.932-.1,19.853-.163c6.69,0,13.369-.054,20.059.065a.424.424,0,0,0,0-.838c-16.132-.283-32.276,0-48.4.185a.424.424,0,0,0-.37.207c-9.116,18.156-18.428,36.213-27.641,54.315-.25.49.479.914.729.424Z" transform="translate(-169.354 -202.647)" fill="#ff725e"/>
        <path id="Path_319" data-name="Path 319" d="M279.506,266.128c-3.971-14.3-8.7-28.392-13.25-42.512q-1.925-5.961-3.829-11.912c-.163-.522-.979-.3-.816.218,4.6,14.479,9.431,28.892,13.859,43.426q1.632,5.483,3.263,11.009a.424.424,0,0,0,.816-.228Z" transform="translate(-167.124 -202.628)" fill="#ff725e"/>
        <path id="Path_320" data-name="Path 320" d="M310.328,211.339c-8.985,7.615-18.623,14.359-28.229,21.125-10.4,7.321-20.886,14.511-31.1,22.072-5.047,3.731-10.041,7.549-14.827,11.607-.413.348.185.946.6.6,9.159-7.756,18.972-14.718,28.773-21.637,10.323-7.288,20.756-14.435,30.938-21.93,4.917-3.612,9.79-7.31,14.446-11.237C311.339,211.578,310.741,210.991,310.328,211.339Z" transform="translate(-169.368 -202.644)" fill="#ff725e"/>
        <path id="Path_321" data-name="Path 321" d="M235.489,261.858c12.445.359,24.889.5,37.334.511,3,0,6.016,0,9.018-.065a.424.424,0,0,0,0-.838c-12.477.239-25.02,0-37.464-.239-2.959-.065-5.929-.12-8.887-.207a.424.424,0,0,0,0,.838Z" transform="translate(-169.447 -198.271)" fill="#ff725e"/>
        <path id="Path_322" data-name="Path 322" d="M219.663,266.811c7.93-14.762,15.229-29.828,22.92-44.731q2.839-5.526,5.765-11.009c.25-.479-.479-.9-.729-.424-7.93,14.762-15.229,29.828-22.92,44.731-1.893,3.688-3.8,7.365-5.765,11.009-.25.479.479.9.729.424Z" transform="translate(-170.874 -202.713)" fill="#ff725e"/>
        <path id="Path_323" data-name="Path 323" d="M198.13,266.535q7.441-14.62,14.9-29.23l7.441-14.62c1.218-2.382,2.426-4.776,3.633-7.158.392-.783.99-2.763,1.838-3.1a7.059,7.059,0,0,1,2.176,0h2.415c6.309-.109,12.63-.228,18.95,0a.425.425,0,0,0,0-.848c-8.017-.25-16.034,0-24.041.12a.424.424,0,0,0-.37.207c-9.149,18.134-18.428,36.213-27.641,54.315-.25.479.479.914.729.424Z" transform="translate(-172.762 -202.623)" fill="#ff725e"/>
        <path id="Path_324" data-name="Path 324" d="M219.729,266.5c1.621-18.156,2.535-36.355,4.21-54.5.054-.544-.783-.544-.838,0-1.675,18.145-2.589,36.344-4.221,54.5a.425.425,0,0,0,.848,0Z" transform="translate(-170.875 -202.612)" fill="#ff725e"/>
        <path id="Path_325" data-name="Path 325" d="M249.621,211.59c-13.489,14.555-27.5,28.61-41.2,42.958q-5.6,5.842-11.1,11.781c-.37.392.228.99.6.587,13.565-14.686,27.685-28.86,41.511-43.306q5.439-5.678,10.78-11.422c.37-.392-.228-.99-.6-.6Z" transform="translate(-172.777 -202.623)" fill="#ff725e"/>
        <path id="Path_326" data-name="Path 326" d="M197.143,262.068c8.017.392,16.078.74,24.106.511a.419.419,0,0,0,0-.838c-8.028.218-16.089-.12-24.106-.511A.419.419,0,0,0,197.143,262.068Z" transform="translate(-172.819 -198.253)" fill="#ff725e"/>
        <path id="Path_327" data-name="Path 327" d="M209.034,216.388a2.948,2.948,0,0,0-.337,2.241,1.958,1.958,0,0,0,1.392,1.305,5.439,5.439,0,0,0,4.482-1.294,4.678,4.678,0,0,0,1.915-4.014,2.535,2.535,0,0,0-2.7-2.176,3.905,3.905,0,0,0-2.426,1.229,12.793,12.793,0,0,0-1,1.033,2.546,2.546,0,0,0-.642,1.088c-.1.533.718.761.816.228a3.56,3.56,0,0,1,1.088-1.469,4.906,4.906,0,0,1,1.523-1.153,1.773,1.773,0,0,1,2.415,1.088,3.448,3.448,0,0,1-1.088,3.111,5.439,5.439,0,0,1-3.481,1.653,1.577,1.577,0,0,1-1.436-.555,1.871,1.871,0,0,1,.141-1.828c.25-.479-.479-.9-.729-.424Z" transform="translate(-171.777 -202.537)" fill="#ff725e"/>
      </g>
      <path id="Path_328" data-name="Path 328" d="M408.9,180.835,341.852,308.7H108.33l67.086-127.862h66.933l-34.114,15.632h-.076c-17.405,6.342-31.318,16.056-38.433,28.185-16.317,27.783,9.323,57.654,57.219,66.814s99.916-6.027,116.2-33.809a33.287,33.287,0,0,0,4.873-18.493l3.514-58.394Z" transform="translate(-108.33 -126.911)" opacity="0.2"/>
    </g>
    <g id="freepik--Character--inject-20" transform="translate(159.507 104.815)">
      <path id="Path_329" data-name="Path 329" d="M192.336,161.606c-2.817,4.971-5.678,10.128-8.409,15.229s-5.439,10.247-7.68,15.382c-.587,1.284-1.088,2.556-1.61,3.829h0a.318.318,0,0,1-.065.174,4.178,4.178,0,0,0,0,.979,13.055,13.055,0,0,0,.99,3.068c.5,1.088,1.088,2.3,1.751,3.459a126.372,126.372,0,0,0,9.725,13.891l-4.243,4.514a72.568,72.568,0,0,1-13.532-12.912,29.61,29.61,0,0,1-5.211-9.268,14.6,14.6,0,0,1-.631-3.4,11.968,11.968,0,0,1,.065-2.045,9.791,9.791,0,0,1,.174-1.088,2.693,2.693,0,0,1,.141-.566l.141-.49c.5-1.5.979-3.024,1.523-4.482a172.842,172.842,0,0,1,7.288-16.774c2.73-5.439,5.57-10.65,8.7-15.893Z" transform="translate(-145.157 -96.015)" fill="#ffc3bd"/>
      <path id="Path_330" data-name="Path 330" d="M184.018,211.26l5.787,1.893-4.863,8.2s-4.264-1.925-5.113-5.831Z" transform="translate(-143.715 -91.093)" fill="#ffc3bd"/>
      <path id="Path_331" data-name="Path 331" d="M197.311,216.176l-5.646,6.32-7.125-1.284,4.863-8.2Z" transform="translate(-143.301 -90.939)" fill="#ffc3bd"/>
      <path id="Path_332" data-name="Path 332" d="M221.085,126.08c-.163.642,0,1.251.468,1.36s.892-.326,1.088-.968,0-1.262-.468-1.371S221.248,125.428,221.085,126.08Z" transform="translate(-140.097 -98.661)" fill="#263238"/>
      <path id="Path_333" data-name="Path 333" d="M221.2,127.14a23.8,23.8,0,0,0,1.664,6.3,3.851,3.851,0,0,1-3.263-.207Z" transform="translate(-140.222 -98.48)" fill="#ed847e"/>
      <path id="Path_334" data-name="Path 334" d="M219.779,122.233a.392.392,0,0,1,0-.718,3.873,3.873,0,0,1,3.557.283.413.413,0,0,1,.1.555.392.392,0,0,1-.544.087h0a3.122,3.122,0,0,0-2.828-.2A.37.37,0,0,1,219.779,122.233Z" transform="translate(-140.227 -99.001)" fill="#263238"/>
      <path id="Path_335" data-name="Path 335" d="M200.84,128.32c1.186,6.037,2.371,17.1-1.86,21.125,0,0,1.653,6.135,12.869,6.135,12.347,0,5.907-6.135,5.907-6.135-6.744-1.6-6.527-6.6-5.439-11.292Z" transform="translate(-142.033 -98.377)" fill="#ffc3bd"/>
      <path id="Path_336" data-name="Path 336" d="M197.125,151.295c-.577-3.263-1.218-6.962.914-7.908,2.339-1.088,14.631-1.153,18.6,1.588s2.176,9.051,2.176,9.051Z" transform="translate(-142.245 -97.115)" fill="#263238"/>
      <path id="Path_337" data-name="Path 337" d="M197.125,151.295c-.577-3.263-1.218-6.962.914-7.908,2.339-1.088,14.631-1.153,18.6,1.588s2.176,9.051,2.176,9.051Z" transform="translate(-142.245 -97.115)" fill="#ff725e" opacity="0.6"/>
      <path id="Path_338" data-name="Path 338" d="M161.045,405.3a2.643,2.643,0,0,0,2.056-.109.794.794,0,0,0,.2-.914.925.925,0,0,0-.511-.577c-1.088-.533-3.666.511-3.775.566a.207.207,0,0,0-.131.174.185.185,0,0,0,.12.174,9.593,9.593,0,0,0,2.045.685Zm1.349-1.316.228.076a.533.533,0,0,1,.294.337c.109.348,0,.457-.065.49-.446.381-2.089,0-3.263-.435a6.419,6.419,0,0,1,2.807-.413Z" transform="translate(-145.555 -74.207)" fill="#ff725e"/>
      <path id="Path_339" data-name="Path 339" d="M159.013,404.818h.087c.936-.272,2.937-1.686,2.959-2.622a.631.631,0,0,0-.5-.631,1.088,1.088,0,0,0-.87.065c-1.088.566-1.795,2.85-1.828,2.948a.2.2,0,0,0,.054.2.207.207,0,0,0,.1.043Zm2.328-2.926h.087c.239.076.239.2.239.25,0,.555-1.327,1.664-2.3,2.121a4.688,4.688,0,0,1,1.5-2.328.728.728,0,0,1,.5-.043Z" transform="translate(-145.557 -74.387)" fill="#ff725e"/>
      <path id="Path_340" data-name="Path 340" d="M217.044,409.041c1.088,0,2.078-.152,2.426-.62a.74.74,0,0,0,0-.859.968.968,0,0,0-.62-.457c-1.371-.37-4.253,1.273-4.351,1.338a.2.2,0,0,0-.1.207.207.207,0,0,0,.152.163,15.223,15.223,0,0,0,2.491.228Zm1.305-1.6a1.4,1.4,0,0,1,.381,0,.6.6,0,0,1,.381.272c.141.239.087.359,0,.435-.392.533-2.48.544-4.014.326a8.887,8.887,0,0,1,3.22-1.033Z" transform="translate(-140.679 -73.9)" fill="#ff725e"/>
      <path id="Path_341" data-name="Path 341" d="M214.556,408.97h.076c.99-.446,2.97-2.176,2.817-3.166,0-.218-.2-.49-.729-.544a1.436,1.436,0,0,0-1.088.337c-1.088.859-1.273,3.089-1.273,3.176a.2.2,0,0,0,.076.185A.218.218,0,0,0,214.556,408.97Zm2.012-3.35h.109c.359,0,.381.174.392.218.087.555-1.251,1.958-2.274,2.578a4.623,4.623,0,0,1,1.088-2.545,1.088,1.088,0,0,1,.685-.25Z" transform="translate(-140.683 -74.057)" fill="#ff725e"/>
      <path id="Path_342" data-name="Path 342" d="M206.19,410.034h8.257l.816-19.124h-8.246Z" transform="translate(-141.4 -75.317)" fill="#ffc3bd"/>
      <path id="Path_343" data-name="Path 343" d="M150.57,403.968l8.061,1.751,8.1-17.808-8.072-1.751Z" transform="translate(-146.284 -75.734)" fill="#ffc3bd"/>
      <path id="Path_344" data-name="Path 344" d="M159.76,403.549l-9.072-1.958a.718.718,0,0,0-.8.4l-3.144,6.821a1.218,1.218,0,0,0,.87,1.7c3.176.631,4.754.772,8.7,1.643,2.458.533,8,1.882,11.379,2.611s4.558-2.524,3.263-3.122c-5.918-2.709-8.387-5.091-10-7.31a2,2,0,0,0-1.2-.783Z" transform="translate(-146.63 -74.38)" fill="#263238"/>
      <path id="Path_345" data-name="Path 345" d="M214.648,407.61H205.63a.707.707,0,0,0-.7.566l-1.632,7.332a1.2,1.2,0,0,0,1.186,1.469c3.263-.054,7.952-.239,12.042-.239,4.776,0,8.9.261,14.511.261,3.383,0,4.351-3.427,2.9-3.742-6.451-1.414-11.727-1.566-17.307-5A3.883,3.883,0,0,0,214.648,407.61Z" transform="translate(-141.656 -73.85)" fill="#263238"/>
      <path id="Path_346" data-name="Path 346" d="M229.79,156.91c2.687,6.059,5.624,12.281,8.7,18.232,1.534,2.981,3.133,5.918,4.786,8.7a78.011,78.011,0,0,0,5.287,7.941l.7.87c.174.163,0,.087.272.283a10.1,10.1,0,0,0,1.392,1.023,43.129,43.129,0,0,0,4.036,2.176c2.915,1.4,6.016,2.752,9.159,4.025,6.277,2.556,12.738,5,19.156,7.452l-1.566,6a198.289,198.289,0,0,1-20.669-4.46c-3.416-.979-6.831-1.98-10.28-3.263a48.779,48.779,0,0,1-5.309-2.328,21.584,21.584,0,0,1-2.926-1.828,13.577,13.577,0,0,1-1.654-1.469l-1.012-1.088a73.678,73.678,0,0,1-6.777-8.953c-2.012-3.035-3.829-6.135-5.57-9.268a190.753,190.753,0,0,1-9.246-19.243Z" transform="translate(-140.339 -95.866)" fill="#ffc3bd"/>
      <path id="Path_347" data-name="Path 347" d="M184.723,149.48C176.989,151.254,164,189.675,164,189.675l12.64,4.2s12.9-19.113,17.285-28.283C198.506,155.9,192.642,147.664,184.723,149.48Z" transform="translate(-145.105 -96.541)" fill="#ff725e"/>
      <path id="Path_348" data-name="Path 348" d="M184.723,149.48C176.989,151.254,164,189.675,164,189.675l12.64,4.2s12.9-19.113,17.285-28.283C198.506,155.9,192.642,147.664,184.723,149.48Z" transform="translate(-145.105 -96.541)" opacity="0.5"/>
      <path id="Path_349" data-name="Path 349" d="M179,188.873s-12.39-2.361-15.229-4.123c-.99,1.436-2.176,6.636-1.371,8.169s12.347,3.742,13.913,2.839S179,188.873,179,188.873Z" transform="translate(-145.269 -93.421)" fill="#263238"/>
      <path id="Path_350" data-name="Path 350" d="M179,188.873s-12.39-2.361-15.229-4.123c-.99,1.436-2.176,6.636-1.371,8.169s12.347,3.742,13.913,2.839S179,188.873,179,188.873Z" transform="translate(-145.269 -93.421)" fill="#ff725e" opacity="0.6"/>
      <path id="Path_351" data-name="Path 351" d="M188.029,162.016c-2.361,2.361-4.5,9.062-4.569,17.579,2.73-4.351,5.548-9.018,7.517-12.749C190.041,163.485,189,161.081,188.029,162.016Z" transform="translate(-143.396 -95.435)" opacity="0.3"/>
      <path id="Path_352" data-name="Path 352" d="M229.3,150.058s8.79,9.921.49,71.361H185.639c-.3-6.777,3.949-39.847-2.589-71.8a114.907,114.907,0,0,1,14.783-1.871,163.688,163.688,0,0,1,18.776,0,82.752,82.752,0,0,1,12.695,2.306Z" transform="translate(-143.432 -96.694)" fill="#ff725e"/>
      <path id="Path_353" data-name="Path 353" d="M229.3,150.058s8.79,9.921.49,71.361H185.639c-.3-6.777,3.949-39.847-2.589-71.8a114.907,114.907,0,0,1,14.783-1.871,163.688,163.688,0,0,1,18.776,0,82.752,82.752,0,0,1,12.695,2.306Z" transform="translate(-143.432 -96.694)" opacity="0.5"/>
      <path id="Path_354" data-name="Path 354" d="M219.55,167.89c.838,8.964,6.527,20.342,9.856,25.5.435-5.918.664-11.074.729-15.578Z" transform="translate(-140.227 -94.902)" opacity="0.3"/>
      <path id="Path_355" data-name="Path 355" d="M215.575,156.283c-5.319,10.062,22.453,42.784,22.453,42.784l9.7-9.845s-12.6-22.028-15.556-31.8C228.52,145.35,219.621,148.625,215.575,156.283Z" transform="translate(-140.635 -96.523)" fill="#ff725e"/>
      <path id="Path_356" data-name="Path 356" d="M215.575,156.283c-5.319,10.062,22.453,42.784,22.453,42.784l9.7-9.845s-12.6-22.028-15.556-31.8C228.52,145.35,219.621,148.625,215.575,156.283Z" transform="translate(-140.635 -96.523)" opacity="0.5"/>
      <path id="Path_357" data-name="Path 357" d="M245.639,184.22s-8.42,9.388-11.379,10.878c.718,1.588,4.536,5.319,6.288,5.439s9.584-8.637,9.616-10.443S245.639,184.22,245.639,184.22Z" transform="translate(-138.935 -93.468)" fill="#263238"/>
      <path id="Path_358" data-name="Path 358" d="M245.639,184.22s-8.42,9.388-11.379,10.878c.718,1.588,4.536,5.319,6.288,5.439s9.584-8.637,9.616-10.443S245.639,184.22,245.639,184.22Z" transform="translate(-138.935 -93.468)" fill="#ff725e" opacity="0.6"/>
      <path id="Path_359" data-name="Path 359" d="M276.32,203.9l8-3.448,2.491,8.7s-6.1,3.992-10.987.5Z" transform="translate(-135.285 -92.042)" fill="#ffc3bd"/>
      <path id="Path_360" data-name="Path 360" d="M292.619,205.387h0a.577.577,0,0,1-.794-.152l-8.877-13.163a.566.566,0,0,1,.152-.794h0a.566.566,0,0,1,.794.152l8.877,13.163a.566.566,0,0,1-.152.794Z" transform="translate(-134.668 -92.857)" fill="#263238"/>
      <path id="Path_361" data-name="Path 361" d="M292.061,201.093l3.514,5.2-9.453,2.828-2.491-8.681Z" transform="translate(-134.599 -92.043)" fill="#ffc3bd"/>
      <path id="Path_362" data-name="Path 362" d="M215.231,390.92l-.413,9.856H206.55l.424-9.856Z" transform="translate(-141.368 -75.316)" opacity="0.2"/>
      <path id="Path_363" data-name="Path 363" d="M158.347,386.17l8.072,1.74-4.177,9.181-8.072-1.751Z" transform="translate(-145.968 -75.733)" opacity="0.2"/>
      <path id="Path_364" data-name="Path 364" d="M201.765,120.4c-1.545,8.05-2.861,12.684.1,17.775,4.449,7.615,15.153,6.527,19.069-.881,3.535-6.679,5.439-18.71-1.479-23.856a11.172,11.172,0,0,0-17.688,6.962Z" transform="translate(-141.935 -99.879)" fill="#ffc3bd"/>
      <path id="Path_365" data-name="Path 365" d="M198.906,116.206c5.82-1.9,16.85-6,20.745,3.361s-11.966,19.146-16,19.156C200.407,138.756,192.51,118.381,198.906,116.206Z" transform="translate(-142.253 -99.664)" fill="#263238"/>
      <path id="Path_366" data-name="Path 366" d="M211.227,121.284c11.4,6.255,21.756-2.741,17.133-12.912s-14.729-8.7-11.585-3.742-5.548-2.556-11.553-.239c-4.21,1.621,1.251,4.264,1.762,6.179s-11.02,1.969-12.553,4.841,4,8.855,6.842,7.919S209.215,120.164,211.227,121.284Z" transform="translate(-142.456 -100.794)" fill="#263238"/>
      <path id="Path_367" data-name="Path 367" d="M212.893,124.283a9.2,9.2,0,0,0,.849,5.885c1.229,2.371,3.361,1.664,4.286-.587.838-2.034,1.2-5.711-.653-7.332S213.371,121.879,212.893,124.283Z" transform="translate(-140.825 -98.974)" fill="#ffc3bd"/>
      <path id="Path_368" data-name="Path 368" d="M216.871,215.453s-9.366,63.093-14.511,86.721c-5.635,25.89-35.746,108.858-35.746,108.858l-14.783-3.2s22.55-77.681,25.76-103.343c3.492-27.815,10.791-89.07,10.791-89.07Z" transform="translate(-146.174 -90.728)" fill="#263238"/>
      <path id="Path_369" data-name="Path 369" d="M170.235,390.973c.065,0-2.752,5.341-2.752,5.341l-16.633-3.6,1.4-4.993Z" transform="translate(-146.26 -75.597)" fill="#ff725e"/>
      <path id="Path_370" data-name="Path 370" d="M206.924,236.117c-10.878,2.121-9.692,42.523-8.387,63.3,3.122-14.685,7.7-42.947,10.824-63.006a3.742,3.742,0,0,0-2.437-.294Z" transform="translate(-142.145 -88.918)" opacity="0.3"/>
      <path id="Path_371" data-name="Path 371" d="M228.341,215.45s1.088,61.723.239,86.895c-.914,26.184-10.03,111.925-10.03,111.925H204.54s-.522-84.208-1.142-109.924c-.674-28.033-4.058-88.9-4.058-88.9Z" transform="translate(-142.002 -90.725)" fill="#263238"/>
      <path id="Path_372" data-name="Path 372" d="M220.924,393.1c.065,0-.794,5.809-.794,5.809H203.117l-.457-5.178Z" transform="translate(-141.71 -75.125)" fill="#ff725e"/>
    </g>
  </g>
</svg>
