<svg xmlns="http://www.w3.org/2000/svg" width="624.061" height="465" viewBox="0 0 624.061 465">
  <g id="Animation-rafiki" transform="translate(0 -55)">
    <g id="freepik--background-complete--inject-70" transform="translate(0 55)">
      <rect id="Rectangle_32" data-name="Rectangle 32" width="624.061" height="0.312" transform="translate(0 408.635)" fill="#ebebeb"/>
      <rect id="Rectangle_33" data-name="Rectangle 33" width="41.338" height="0.312" transform="translate(520.192 428.717)" fill="#ebebeb"/>
      <rect id="Rectangle_34" data-name="Rectangle 34" width="10.846" height="0.312" transform="translate(402.556 432.112)" fill="#ebebeb"/>
      <rect id="Rectangle_35" data-name="Rectangle 35" width="23.951" height="0.312" transform="translate(494.992 417.135)" fill="#ebebeb"/>
      <rect id="Rectangle_36" data-name="Rectangle 36" width="53.906" height="0.312" transform="translate(65.476 419.231)" fill="#ebebeb"/>
      <rect id="Rectangle_37" data-name="Rectangle 37" width="7.901" height="0.312" transform="translate(130.504 419.231)" fill="#ebebeb"/>
      <rect id="Rectangle_38" data-name="Rectangle 38" width="116.924" height="0.312" transform="translate(164.09 424.498)" fill="#ebebeb"/>
      <path id="Path_132" data-name="Path 132" d="M286.324,407.969h-241a7.127,7.127,0,0,1-7.114-7.127V62.064A7.127,7.127,0,0,1,45.324,55h241a7.127,7.127,0,0,1,7.127,7.127V400.842A7.127,7.127,0,0,1,286.324,407.969ZM45.324,55.25a6.815,6.815,0,0,0-6.8,6.815V400.842a6.815,6.815,0,0,0,6.8,6.815h241a6.827,6.827,0,0,0,6.815-6.815V62.064a6.827,6.827,0,0,0-6.815-6.815Z" transform="translate(9.481 -55)" fill="#ebebeb"/>
      <path id="Path_133" data-name="Path 133" d="M502.639,407.969H261.627a7.139,7.139,0,0,1-7.127-7.127V62.064A7.139,7.139,0,0,1,261.627,55H502.639a7.127,7.127,0,0,1,7.1,7.064V400.842A7.127,7.127,0,0,1,502.639,407.969ZM261.627,55.25a6.827,6.827,0,0,0-6.815,6.815V400.842a6.827,6.827,0,0,0,6.815,6.815H502.639a6.827,6.827,0,0,0,6.815-6.815V62.064a6.827,6.827,0,0,0-6.815-6.815Z" transform="translate(63.147 -55)" fill="#ebebeb"/>
      <path id="Path_134" data-name="Path 134" d="M73.35,293.93v16.6l14.2,3.208,412.891-4.081,14.2-10.759-14.2-3.208Z" transform="translate(18.2 4.284)" fill="#e0e0e0"/>
      <path id="Path_135" data-name="Path 135" d="M84.73,296.5v16.6l427.095-.874V298.26Z" transform="translate(21.023 4.921)" fill="#e6e6e6"/>
      <path id="Path_136" data-name="Path 136" d="M73.35,331.89v16.6l14.2,3.208,412.891-4.081,14.2-10.759-14.2-3.208Z" transform="translate(18.2 13.702)" fill="#e0e0e0"/>
      <path id="Path_137" data-name="Path 137" d="M84.73,334.46v16.6l427.095-.874V336.22Z" transform="translate(21.023 14.34)" fill="#e6e6e6"/>
      <path id="Path_138" data-name="Path 138" d="M111.658,278.61h-16.6l-3.208,3.233,4.094,94.083,10.746,3.233,3.208-3.233Z" transform="translate(22.79 0.482)" fill="#e0e0e0"/>
      <path id="Path_139" data-name="Path 139" d="M108.45,281.2H91.85l.886,97.316H106.69Z" transform="translate(22.79 1.125)" fill="#f0f0f0"/>
      <path id="Path_140" data-name="Path 140" d="M139.568,278.61h-16.6l-3.208,3.233,4.094,94.083,10.746,3.233,3.208-3.233Z" transform="translate(29.715 0.482)" fill="#e0e0e0"/>
      <path id="Path_141" data-name="Path 141" d="M136.36,281.2h-16.6l.886,97.316H134.6Z" transform="translate(29.715 1.125)" fill="#f0f0f0"/>
      <path id="Path_142" data-name="Path 142" d="M167.478,278.61h-16.6l-3.208,3.233,4.081,94.083,10.759,3.233,3.208-3.233Z" transform="translate(36.64 0.482)" fill="#e0e0e0"/>
      <path id="Path_143" data-name="Path 143" d="M164.27,281.2h-16.6l.874,97.316H162.51Z" transform="translate(36.64 1.125)" fill="#f0f0f0"/>
      <path id="Path_144" data-name="Path 144" d="M228.188,278.61h-16.6l-3.208,3.233,4.081,94.083,10.746,3.233,3.22-3.233Z" transform="translate(51.703 0.482)" fill="#e0e0e0"/>
      <path id="Path_145" data-name="Path 145" d="M224.98,281.2h-16.6l.874,97.316h13.954Z" transform="translate(51.703 1.125)" fill="#f0f0f0"/>
      <path id="Path_146" data-name="Path 146" d="M256.1,278.61H239.488l-3.208,3.233,4.094,94.083,10.746,3.233,3.208-3.233Z" transform="translate(58.626 0.482)" fill="#e0e0e0"/>
      <path id="Path_147" data-name="Path 147" d="M252.893,281.2H236.28l.886,97.316H251.12Z" transform="translate(58.626 1.125)" fill="#f0f0f0"/>
      <path id="Path_148" data-name="Path 148" d="M284,278.61H267.4l-3.208,3.233,4.094,94.083,10.746,3.233,3.208-3.233Z" transform="translate(65.551 0.482)" fill="#e0e0e0"/>
      <path id="Path_149" data-name="Path 149" d="M280.79,281.2h-16.6l.886,97.316H279.03Z" transform="translate(65.551 1.125)" fill="#f0f0f0"/>
      <path id="Path_150" data-name="Path 150" d="M349.085,278.61H332.5l-3.208,3.233,4.081,94.083,10.746,3.233,3.208-3.233Z" transform="translate(81.704 0.482)" fill="#e0e0e0"/>
      <path id="Path_151" data-name="Path 151" d="M345.878,281.2H329.29l.874,97.316h13.954Z" transform="translate(81.704 1.125)" fill="#f0f0f0"/>
      <path id="Path_152" data-name="Path 152" d="M377,278.61H360.4l-3.208,3.233,4.094,94.083,10.746,3.233,3.208-3.233Z" transform="translate(88.626 0.482)" fill="#e0e0e0"/>
      <path id="Path_153" data-name="Path 153" d="M373.79,281.2h-16.6l.886,97.316H372.03Z" transform="translate(88.626 1.125)" fill="#f0f0f0"/>
      <path id="Path_154" data-name="Path 154" d="M404.908,278.61h-16.6l-3.208,3.233,4.094,94.083,10.746,3.233,3.208-3.233Z" transform="translate(95.551 0.482)" fill="#e0e0e0"/>
      <path id="Path_155" data-name="Path 155" d="M401.7,281.2H385.1l.886,97.316H399.94Z" transform="translate(95.551 1.125)" fill="#f0f0f0"/>
      <path id="Path_156" data-name="Path 156" d="M200.005,268.4l-18.522-2.5-4.543,4.256,5.791,123.926,17.723,4.269L205,394.082Z" transform="translate(43.903 -2.671)" fill="#e0e0e0"/>
      <path id="Path_157" data-name="Path 157" d="M195.462,271.806l-18.522-2.5L178.188,397.5h22.266Z" transform="translate(43.903 -1.825)" fill="#fafafa"/>
      <path id="Path_158" data-name="Path 158" d="M322.588,265.9l-23.515,1.248L294.53,271.4l3.3,122.678,17.723,4.269,4.543-4.269Z" transform="translate(73.079 -2.671)" fill="#e0e0e0"/>
      <path id="Path_159" data-name="Path 159" d="M318.293,269.31l-23.515,1.248L293.53,397.5H315.8Z" transform="translate(72.831 -1.825)" fill="#fafafa"/>
      <path id="Path_160" data-name="Path 160" d="M440.178,265.9H416.663l-4.543,4.256,5.791,123.926,15.227,4.269,4.543-4.269Z" transform="translate(102.256 -2.671)" fill="#e0e0e0"/>
      <path id="Path_161" data-name="Path 161" d="M435.635,269.31H412.12L413.368,397.5h19.77Z" transform="translate(102.256 -1.825)" fill="#fafafa"/>
      <path id="Path_162" data-name="Path 162" d="M87.408,265.9H63.893l-4.543,4.256,5.791,123.926,15.227,4.269,4.543-4.269Z" transform="translate(14.726 -2.671)" fill="#e0e0e0"/>
      <path id="Path_163" data-name="Path 163" d="M82.865,269.31H59.35L60.6,397.5h19.77Z" transform="translate(14.726 -1.825)" fill="#fafafa"/>
      <path id="Path_164" data-name="Path 164" d="M100.616,174.377c5.392-1.248,11.57,2.658,16.338-.162,5.941-3.507,5.5-14.753,12.369-15.5,11.92-1.248,16.7,16.35,23.951,16.925,6.777.537,11-8.587,17.761-9.236,8.437-.811,13.4,10.784,21.817,11.782,4.643.537,9.111-2.259,13.729-2.047a10.859,10.859,0,0,1,9.985,11.133H84.44S93.377,176.049,100.616,174.377Z" transform="translate(20.951 -29.282)" fill="#fafafa"/>
      <path id="Path_165" data-name="Path 165" d="M238.238,177.429c3.969-2.3,7.489-1.485,11.4-.761s4.269-4.456,8.824-6.677c6.365-3.108,10.235,3.57,11.87,6.241s5.741,1.248,9.785,1.96c5.592,1.011,5.791,6.852,5.791,6.852H233.87S234.032,179.9,238.238,177.429Z" transform="translate(58.028 -26.669)" fill="#f5f5f5"/>
      <path id="Path_166" data-name="Path 166" d="M251.057,205.538c-2.2-.512-4.718,1.086-6.665-.075-2.421-1.435-2.247-6.028-5.055-6.328-4.868-.524-6.815,6.677-9.773,6.915-2.771.212-4.493-3.507-7.252-3.744-3.445-.337-5.479,4.393-8.912,4.805-1.9.225-3.744-.924-5.629-.836a4.431,4.431,0,0,0-4.081,4.543h53.981S254,206.212,251.057,205.538Z" transform="translate(50.539 -19.244)" fill="#f5f5f5"/>
      <path id="Path_167" data-name="Path 167" d="M393.614,179.428c-2.683-.612-5.741,1.323-8.1-.075-2.946-1.735-2.733-7.314-6.128-7.676-5.9-.649-8.275,8.1-11.87,8.375-3.357.275-5.442-4.244-8.737-4.568-4.181-.412-6.64,5.342-10.821,5.829-2.3.275-4.506-1.111-6.815-1.011a5.367,5.367,0,0,0-4.993,5.517h65.464S397.2,180.264,393.614,179.428Z" transform="translate(83.405 -26.059)" fill="#f5f5f5"/>
    </g>
    <g id="freepik--Shadow--inject-70" transform="translate(70.032 491.743)">
      <ellipse id="freepik--path--inject-70" cx="241.998" cy="14.129" rx="241.998" ry="14.129" fill="#f5f5f5"/>
    </g>
    <g id="freepik--character-3--inject-70" transform="translate(379.891 220.601)">
      <rect id="Rectangle_39" data-name="Rectangle 39" width="176.896" height="280.278" transform="translate(4.992 4.992)" fill="none" stroke="#263238" stroke-miterlimit="10" stroke-width="1"/>
      <rect id="Rectangle_40" data-name="Rectangle 40" width="176.896" height="280.278" transform="translate(4.992 4.992)" fill="none" stroke="#fff" stroke-miterlimit="10" stroke-width="1" opacity="0.6"/>
      <path id="Path_168" data-name="Path 168" d="M368.565,256.88s-12.481,16.338,4.843,28.844l4.231-10.085s-2.1-3.283-.886-11.957Z" transform="translate(-289.521 -170.51)" fill="#ebb376"/>
      <path id="Path_169" data-name="Path 169" d="M402.534,237.751c-6.328-5.991-15.651-2.584-37.444,24.226,0,0,8.6,9.011,13.867,11.745,0,0,18.722-15.714,21.954-19.383S410.222,245.016,402.534,237.751Z" transform="translate(-289.304 -175.882)" fill="#ffc100"/>
      <path id="Path_170" data-name="Path 170" d="M402.534,237.751c-6.328-5.991-15.651-2.584-37.444,24.226,0,0,8.6,9.011,13.867,11.745,0,0,18.722-15.714,21.954-19.383S410.222,245.016,402.534,237.751Z" transform="translate(-289.304 -175.882)" fill="#fff" opacity="0.1"/>
      <path id="Path_171" data-name="Path 171" d="M401.36,379.911l6.6-7.551,5.617,5.067L406.9,385.54Z" transform="translate(-280.305 -141.857)" fill="#ebb376"/>
      <path id="Path_172" data-name="Path 172" d="M410.125,383.915l-6.715-6.328a.736.736,0,0,0-.949.087l-7.314,5.916a1.635,1.635,0,0,0-.649,1.91,1.162,1.162,0,0,0,.162.187c2.159,1.947,3.882,3.22,6.54,5.729,1.635,1.548,6.353,6.44,8.625,8.575s5.529-.736,4.868-1.9c-2.958-5.192-4.418-9.91-4.169-12.843a1.51,1.51,0,0,0-.4-1.336Z" transform="translate(-282.03 -140.593)" fill="#263238"/>
      <path id="Path_173" data-name="Path 173" d="M380.56,312.34s19.271,22.466,58.874,34.2c0,0-18.16,12.481-24.85,40.589l-4.219,5.929a20.669,20.669,0,0,0,8.412,6.628L422.971,394s27.3-24.276,39.528-52.321c-.175-13.917-64.753-54.643-68.971-50.936S380.56,312.34,380.56,312.34Z" transform="translate(-285.466 -162.166)" fill="#ffc100"/>
      <path id="Path_174" data-name="Path 174" d="M380.56,312.34s19.271,22.466,58.874,34.2c0,0-18.16,12.481-24.85,40.589l-4.219,5.929a20.669,20.669,0,0,0,8.412,6.628L422.971,394s27.3-24.276,39.528-52.321c-.175-13.917-64.753-54.643-68.971-50.936S380.56,312.34,380.56,312.34Z" transform="translate(-285.466 -162.166)" opacity="0.5"/>
      <path id="Path_175" data-name="Path 175" d="M317.42,402.036l5.092-9.436,6.253,4.044-4.031,7.8Z" transform="translate(-301.132 -136.835)" fill="#ebb376"/>
      <path id="Path_176" data-name="Path 176" d="M326.594,402.311l-7.6-3.395a.724.724,0,0,0-.861.4l-5.741,7.6a1.6,1.6,0,0,0,0,2.009.711.711,0,0,0,.2.137c2.7,1.123,4.73,1.76,8.075,3.245,2.047.924,8.125,3.994,10.971,5.267s4.992-2.5,3.969-3.407c-4.506-3.919-7.489-7.9-8.163-10.746a1.56,1.56,0,0,0-.849-1.111Z" transform="translate(-302.468 -135.275)" fill="#263238"/>
      <path id="Path_177" data-name="Path 177" d="M383.044,362.483c-6.241,13.03-50.948,56.7-50.948,56.7l-4.256,5.4a16.425,16.425,0,0,1-8.45-5.167l3.545-5.779c19.645-46.018,41.338-55.017,41.338-55.017,2.571-46.492,7.951-50.412,13.729-69.021,11.42-3.045,30.7,1.623,30.7,1.623S403,328.709,383.044,362.483Z" transform="translate(-300.643 -162.646)" fill="#ffc100"/>
      <path id="Path_178" data-name="Path 178" d="M383.044,362.483c-6.241,13.03-50.948,56.7-50.948,56.7l-4.256,5.4a16.425,16.425,0,0,1-8.45-5.167l3.545-5.779c19.645-46.018,41.338-55.017,41.338-55.017,2.571-46.492,7.951-50.412,13.729-69.021,11.42-3.045,30.7,1.623,30.7,1.623S403,328.709,383.044,362.483Z" transform="translate(-300.643 -162.646)" opacity="0.3"/>
      <path id="Path_179" data-name="Path 179" d="M402.1,304.685s-11.57,4.581-35.7-1.086c0,0,18.447-58.175,22.316-66.462,3.307-7.089,29.331-7.1,36.532,3.32C433.062,251.927,412.081,297.559,402.1,304.685Z" transform="translate(-288.979 -176.641)" fill="#ffc100"/>
      <path id="Path_180" data-name="Path 180" d="M402.1,304.685s-11.57,4.581-35.7-1.086c0,0,18.447-58.175,22.316-66.462,3.307-7.089,29.331-7.1,36.532,3.32C433.062,251.927,412.081,297.559,402.1,304.685Z" transform="translate(-288.979 -176.641)" fill="#fff" opacity="0.6"/>
      <path id="Path_181" data-name="Path 181" d="M425.875,285.3l6.241,1.086s6.565-2.359,8.163-2.234,8.737,4.456,8.737,4.456,1.373,2.247,1.173,2.833-10.309,5.966-12.194,5.879-6-3.919-6.628-4.406-10.8-4.019-10.8-4.019Z" transform="translate(-275.538 -163.745)" fill="#ebb376"/>
      <path id="Path_182" data-name="Path 182" d="M391.7,263.183s12.631,34.947,46.468,34.947l2.109-6.116s-20.744.437-36.632-32.014Z" transform="translate(-282.702 -169.736)" fill="#ebb376"/>
      <path id="Path_183" data-name="Path 183" d="M386.7,233.388c-7.975,3.52-8.437,13.442,7.863,43.871,0,0,11.645-4.443,16.226-8.25,0,0-7.264-23.29-9.373-27.746S396.387,229.12,386.7,233.388Z" transform="translate(-285.279 -176.649)" fill="#ffc100"/>
      <path id="Path_184" data-name="Path 184" d="M386.7,233.388c-7.975,3.52-8.437,13.442,7.863,43.871,0,0,11.645-4.443,16.226-8.25,0,0-7.264-23.29-9.373-27.746S396.387,229.12,386.7,233.388Z" transform="translate(-285.279 -176.649)" fill="#fff" opacity="0.4"/>
      <path id="Path_185" data-name="Path 185" d="M404.13,217.24c-.437,5.741-2.122,16.076-6.94,18.722a18.148,18.148,0,0,0,10.934,8.662c6.94,2.084,6.053-3.744,6.053-3.744-5.167-3.495-4.331-7.913-2.1-11.845Z" transform="translate(-281.339 -180.346)" fill="#ebb376"/>
      <path id="Path_186" data-name="Path 186" d="M405.525,221.07l4.705,6.952a19.087,19.087,0,0,0-1.248,2.921c-2.222-.986-4.768-4.456-4.344-6.952a8.611,8.611,0,0,1,.886-2.921Z" transform="translate(-279.503 -179.395)" opacity="0.2" style="isolation: isolate"/>
      <path id="Path_187" data-name="Path 187" d="M411.224,207.616c-2.708,2.659-.649,5.941,7.351,10.21,2.159-4.206,1.248-11.42-1.248-12.806S413.521,205.331,411.224,207.616Z" transform="translate(-278.137 -183.502)" fill="#263238"/>
      <path id="Path_188" data-name="Path 188" d="M401.238,216.149c1.248,5.492,1.947,9.361,3.982,12.319a12.231,12.231,0,0,0,2.821,2.858c6.715,4.868,15.464-.15,16.013-7.975v-.761c.25-7.064-2.721-17.474-10.334-19.109a10.472,10.472,0,0,0-12.481,12.668Z" transform="translate(-280.407 -183.823)" fill="#ebb376"/>
      <path id="Path_189" data-name="Path 189" d="M410.492,213.982c.1.612.512,1.061.911.986s.649-.612.537-1.248-.5-1.061-.9-1S410.43,213.37,410.492,213.982Z" transform="translate(-278.042 -181.468)" fill="#263238"/>
      <path id="Path_190" data-name="Path 190" d="M416.1,213.049c.1.624.512,1.061.911,1s.649-.624.549-1.248-.512-1.061-.911-1S415.983,212.438,416.1,213.049Z" transform="translate(-276.655 -181.696)" fill="#263238"/>
      <path id="Path_191" data-name="Path 191" d="M414.3,213.34a22.342,22.342,0,0,0,3.819,4.768,3.6,3.6,0,0,1-2.846,1.036Z" transform="translate(-277.094 -181.313)" fill="#d58745"/>
      <path id="Path_192" data-name="Path 192" d="M408.757,212.712a.387.387,0,0,1-.237,0,.374.374,0,0,1-.162-.5,3.594,3.594,0,0,1,2.683-1.972.35.35,0,0,1,.4.3h0a.374.374,0,0,1-.324.4h0a2.921,2.921,0,0,0-2.109,1.585.4.4,0,0,1-.25.187Z" transform="translate(-278.578 -182.083)" fill="#263238"/>
      <path id="Path_193" data-name="Path 193" d="M418.938,210.914a.387.387,0,0,1-.374-.15,2.908,2.908,0,0,0-2.3-1.248.374.374,0,0,1-.387-.349.387.387,0,0,1,.35-.387,3.744,3.744,0,0,1,2.933,1.61.374.374,0,0,1-.075.512h0Z" transform="translate(-276.702 -182.445)" fill="#263238"/>
      <path id="Path_194" data-name="Path 194" d="M406.242,204.11c3.744.624,1.735,9.136-2.371,17.212-4.169-2.2-7.638-8.6-6.3-11.233S402.985,203.573,406.242,204.11Z" transform="translate(-281.318 -183.616)" fill="#263238"/>
      <path id="Path_195" data-name="Path 195" d="M399.19,219.876a7.3,7.3,0,0,0,4.144,3.744c2.421.836,3.744-1.248,3.233-3.657-.487-2.122-2.346-5.117-4.818-4.992a3.258,3.258,0,0,0-2.559,4.905Z" transform="translate(-280.955 -180.91)" fill="#ebb376"/>
      <path id="Path_196" data-name="Path 196" d="M410.73,219.83a5.392,5.392,0,0,0,5.392,1.435" transform="translate(-277.98 -179.703)" fill="none" stroke="#263238" stroke-linecap="round" stroke-linejoin="round" stroke-width="0.526"/>
      <path id="Path_197" data-name="Path 197" d="M422.151,203.924c-.724,1.4-1.722,3.345-6.315,4.194s-8.912-.986-10.309.349-2.746,5.517-2.746,5.517l-5.13-.961A6.815,6.815,0,0,1,399,205.771c6.44-7.252,19.458-2.109,21.6-11.021C420.6,194.75,423.961,200.354,422.151,203.924Z" transform="translate(-281.351 -185.926)" fill="#263238"/>
      <path id="Path_198" data-name="Path 198" d="M409.68,200.44s4.318-2.084,4.281-4.88a3.332,3.332,0,0,1,.062,4.219C412.3,201.851,409.68,200.44,409.68,200.44Z" transform="translate(-278.24 -185.725)" fill="#263238"/>
      <path id="Path_199" data-name="Path 199" d="M414.42,207.15c1.448-.661,8.525-6.241,4.144-11.87" transform="translate(-277.064 -185.794)" fill="none" stroke="#263238" stroke-miterlimit="10" stroke-width="0.25"/>
      <rect id="Rectangle_41" data-name="Rectangle 41" width="9.985" height="9.985" transform="translate(176.896 280.278)" fill="#ffc100"/>
      <rect id="Rectangle_42" data-name="Rectangle 42" width="9.985" height="9.985" transform="translate(0 280.278)" fill="#ffc100"/>
      <rect id="Rectangle_43" data-name="Rectangle 43" width="9.985" height="9.985" transform="translate(88.454 280.278)" fill="#ffc100"/>
      <rect id="Rectangle_44" data-name="Rectangle 44" width="9.985" height="9.985" transform="translate(176.896)" fill="#ffc100"/>
      <rect id="Rectangle_45" data-name="Rectangle 45" width="9.985" height="9.985" fill="#ffc100"/>
      <rect id="Rectangle_46" data-name="Rectangle 46" width="9.985" height="9.985" transform="translate(176.896 140.139)" fill="#ffc100"/>
      <rect id="Rectangle_47" data-name="Rectangle 47" width="9.985" height="9.985" transform="translate(0 140.139)" fill="#ffc100"/>
      <rect id="Rectangle_48" data-name="Rectangle 48" width="9.985" height="9.985" transform="translate(88.454)" fill="#ffc100"/>
      <g id="Group_179" data-name="Group 179" opacity="0.2">
        <rect id="Rectangle_49" data-name="Rectangle 49" width="9.985" height="9.985" transform="translate(176.896 280.278)" fill="#fff"/>
        <rect id="Rectangle_50" data-name="Rectangle 50" width="9.985" height="9.985" transform="translate(0 280.278)" fill="#fff"/>
        <rect id="Rectangle_51" data-name="Rectangle 51" width="9.985" height="9.985" transform="translate(88.454 280.278)" fill="#fff"/>
        <rect id="Rectangle_52" data-name="Rectangle 52" width="9.985" height="9.985" transform="translate(176.896)" fill="#fff"/>
        <rect id="Rectangle_53" data-name="Rectangle 53" width="9.985" height="9.985" fill="#fff"/>
        <rect id="Rectangle_54" data-name="Rectangle 54" width="9.985" height="9.985" transform="translate(176.896 140.139)" fill="#fff"/>
        <rect id="Rectangle_55" data-name="Rectangle 55" width="9.985" height="9.985" transform="translate(0 140.139)" fill="#fff"/>
        <rect id="Rectangle_56" data-name="Rectangle 56" width="9.985" height="9.985" transform="translate(88.454)" fill="#fff"/>
      </g>
    </g>
    <g id="freepik--character-2--inject-70" transform="translate(250.102 234.417)">
      <path id="Path_200" data-name="Path 200" d="M323.469,336.553s-5.167-5.579-6.528-6.091-7.663-.1-7.663-.1c-21.018-11.558-17.087-26.211-15.215-30.679l2.609.325,2.758-16.5c6.915-13.168,11.62-26.934,7.651-32.676a20.27,20.27,0,0,0-7.938-6.016h0c-4.418-2.5-4.543-5.679-3.332-8.862.137-.349.287-.686.437-1.036a5.993,5.993,0,0,1,.349-.7v-.087a10.622,10.622,0,0,0,12.668-4.993c.125-.212.237-.449.349-.674a27.46,27.46,0,0,0,2.746-10.172.362.362,0,0,0,.237.212h.162a.362.362,0,0,0,.287-.424,3.745,3.745,0,0,0-.462-1.248c.836-2.421.973-4.78.075-5.954a3.932,3.932,0,0,0-.949-.936,6.141,6.141,0,0,0,2.921-.849c2.908-1.161,6.241-3.632,5.217-8.188l-1.785,1.847a18.287,18.287,0,0,0,0-3.382,6.5,6.5,0,0,1-4.343,2.584,3.6,3.6,0,0,0,.711-3.145c-1.123,2.5-5.791,2.646-5.916,2.646-4.593-1.111-9.773-3.245-14.69-1.086a6.84,6.84,0,0,0-4.219,5.654c-1.435,1.41-1.635,5.13-.711,8.5a3.445,3.445,0,0,0-2.5,3.47,7.314,7.314,0,0,0,2.209,5.117l.312.275c-.624,5.879-2.421,14.441-6.765,16.762l.062.125c-5.442-.6-10.459-.3-13.629,1.123h0s-9.873-.562-33.088,24.962c0,0,.275.612.774,1.56-6.1,7.014-22.092,27.833-21.642,52.808-.362.686-3.457,5.267-3.258,7.089s6.94,10.8,7.489,10.909,2.559-1.573,2.559-1.573,3.108-7.614,2.983-9.174-3.395-7.564-3.395-7.564v-.362c.087-2.646,1.46-20.12,22.241-42.436a11.522,11.522,0,0,0,1.623,1.248s5.841-3.432,11.907-7.2c-6.3,18.5-13.867,39.715-13.867,39.715-4.081,13.13,4.93,25.911,19.808,42.8a213.6,213.6,0,0,0,11.033,20.981,98.6,98.6,0,0,0-47.641,16.85L219,393.517a15.944,15.944,0,0,0-.112,1.847l-6.615.724v-.5a.761.761,0,0,0-.761-.574l-9.361-.562a1.622,1.622,0,0,0-1.76.973.836.836,0,0,0,0,.25c.275,2.9.674,4.993.949,8.637.162,2.247.312,9.049.537,12.157s4.568,3.2,4.88,1.9c1.335-5.829,3.445-10.285,5.617-12.281a1.51,1.51,0,0,0,.574-1.248v-.886l7.351-1.036c.15.4.324.811.512,1.248l6.927-1.348s24.139.774,44.645-8.874c-7.4,11.932-15.914,29.094-17.349,46.755l-2.371,6.34s.462.374,1.248.886l-2.172,7.788h-.5c-.3,0-.562.3-.624.711l-2.147,9.3a1.61,1.61,0,0,0,.849,1.822.723.723,0,0,0,.237,0c2.908-.075,4.992-.325,8.737-.325,2.259,0,9.049.337,12.169.337s3.507-4.331,2.234-4.73c-5.7-1.747-9.985-4.181-11.832-6.49a1.585,1.585,0,0,0-1.248-.662l1.348-5.242a8.733,8.733,0,0,0,1,0l3.158-6.116S300.741,392.968,304.41,379c1.985-7.576-7.214-26.348-16.051-41.949-3.245-13.155-7.489-24.026-9.9-24.076h-1.4c1.086-.287,1.635-.5,1.635-.5a16.969,16.969,0,0,0,1.785-1.5c.487,14.478,19.221,21.88,24.65,23.714a10.612,10.612,0,0,1,1.947,1.186c.424.574,3.058,4.992,4.668,5.5s11.757-1.6,12.082-2.059S323.469,336.553,323.469,336.553Z" transform="translate(-200.382 -198.735)" fill="#fff"/>
      <g id="Group_180" data-name="Group 180" transform="translate(0.012)" opacity="0.6">
        <path id="Path_201" data-name="Path 201" d="M284.81,302.21l5.1,2.5s6.241-.4,7.663.1,6.528,6.091,6.528,6.091.637,2.3.312,2.758-10.472,2.6-12.082,2.059-4.244-4.93-4.668-5.5-9.4-4.992-9.4-4.992Z" transform="translate(-181.069 -173.079)" fill="#ebb376"/>
        <path id="Path_202" data-name="Path 202" d="M218.939,292.176l-.112,6.141s3.27,6,3.395,7.564-2.983,9.174-2.983,9.174-1.96,1.672-2.559,1.573-7.339-9.074-7.489-10.909,2.9-6.4,3.258-7.089,2.259-11.058,2.259-11.058Z" transform="translate(-198.211 -176.712)" fill="#ebb376"/>
        <path id="Path_203" data-name="Path 203" d="M235.766,252.08s-24.513,24.513-23.964,55.354l6.428-.312s-.374-19.72,24.438-45.082Z" transform="translate(-197.564 -185.518)" fill="#ebb376"/>
        <path id="Path_204" data-name="Path 204" d="M278.788,279.15s-10.622,18.235,14.553,32.077l-2.721,4.73s-32.351-9.174-25.1-30.966c.462-1.36,9.523-9.061,9.523-9.061Z" transform="translate(-184.496 -179.6)" fill="#ebb376"/>
        <path id="Path_205" data-name="Path 205" d="M209.17,357.166l9.985-1.086.711,7.526-10.422,1.46Z" transform="translate(-198.215 -159.713)" fill="#ebb376"/>
        <path id="Path_206" data-name="Path 206" d="M268.5,283.827l11.233,1.423,4.493-26.959Z" transform="translate(-183.494 -183.977)" fill="#ffc100"/>
        <path id="Path_207" data-name="Path 207" d="M268.5,283.827l11.233,1.423,4.493-26.959Z" transform="translate(-183.494 -183.977)" fill="#fff" opacity="0.1"/>
        <path id="Path_208" data-name="Path 208" d="M212.945,365.911l-.661-9.211a.761.761,0,0,0-.761-.574l-9.361-.562a1.622,1.622,0,0,0-1.76.973.836.836,0,0,0,0,.25c.275,2.9.674,4.992.949,8.637.162,2.247.312,9.049.537,12.157s4.568,3.2,4.88,1.9c1.336-5.829,3.445-10.285,5.617-12.281a1.51,1.51,0,0,0,.562-1.286Z" transform="translate(-200.392 -159.846)" fill="#263238"/>
        <path id="Path_209" data-name="Path 209" d="M241.32,407.2l2.871-10.322,7,2.559-2.2,8.5Z" transform="translate(-190.237 -149.59)" fill="#ebb376"/>
        <path id="Path_210" data-name="Path 210" d="M245.588,289.25s3.27,27.958,24.488,63.467a98.6,98.6,0,0,0-47.641,16.85l-7.114,1.51a20.656,20.656,0,0,0,1.71,10.572l6.927-1.348s41.874,1.348,62.169-21.53c9.286-10.372-5.854-68.1-11.47-68.222S245.588,289.25,245.588,289.25Z" transform="translate(-196.715 -176.295)" fill="#ffc100"/>
        <path id="Path_211" data-name="Path 211" d="M245.588,289.25s3.27,27.958,24.488,63.467a98.6,98.6,0,0,0-47.641,16.85l-7.114,1.51a20.656,20.656,0,0,0,1.71,10.572l6.927-1.348s41.874,1.348,62.169-21.53c9.286-10.372-5.854-68.1-11.47-68.222S245.588,289.25,245.588,289.25Z" transform="translate(-196.715 -176.295)" opacity="0.5"/>
        <path id="Path_212" data-name="Path 212" d="M234.656,289.206c-5.779,18.6,14.678,36.458,40.9,66.338,0,0-26.211,30.654-28.844,62.905l-2.371,6.34a16.475,16.475,0,0,0,9.274,3.482l3.158-6.116s35.621-51.348,39.291-65.314-30.7-66.026-30.7-66.026S246.063,286.149,234.656,289.206Z" transform="translate(-192.135 -176.564)" fill="#ffc100"/>
        <path id="Path_213" data-name="Path 213" d="M234.656,289.206c-5.779,18.6,14.678,36.458,40.9,66.338,0,0-26.211,30.654-28.844,62.905l-2.371,6.34a16.475,16.475,0,0,0,9.274,3.482l3.158-6.116s35.621-51.348,39.291-65.314-30.7-66.026-30.7-66.026S246.063,286.149,234.656,289.206Z" transform="translate(-192.135 -176.564)" opacity="0.3"/>
        <path id="Path_214" data-name="Path 214" d="M270.156,304.282s-11.583,4.593-35.7-1.073c0,0,20.557-57.5,22.3-66.475,1.847-9.386,34.623-4.493,41.825,5.929C306.464,254.07,280.141,297.167,270.156,304.282Z" transform="translate(-191.94 -190.565)" fill="#ffc100"/>
        <path id="Path_215" data-name="Path 215" d="M270.156,304.282s-11.583,4.593-35.7-1.073c0,0,20.557-57.5,22.3-66.475,1.847-9.386,34.623-4.493,41.825,5.929C306.464,254.07,280.141,297.167,270.156,304.282Z" transform="translate(-191.94 -190.565)" fill="#fff" opacity="0.6"/>
        <path id="Path_216" data-name="Path 216" d="M261.578,232.86s-9.873-.562-33.088,24.962c0,0,4.319,9.448,9.423,12.481,0,0,21.368-12.544,24.85-16.026S272.486,237.678,261.578,232.86Z" transform="translate(-193.421 -190.287)" fill="#ffc100"/>
        <path id="Path_217" data-name="Path 217" d="M261.578,232.86s-9.873-.562-33.088,24.962c0,0,4.319,9.448,9.423,12.481,0,0,21.368-12.544,24.85-16.026S272.486,237.678,261.578,232.86Z" transform="translate(-193.421 -190.287)" fill="#fff" opacity="0.4"/>
        <path id="Path_218" data-name="Path 218" d="M249.965,404.58H241.64c-.3,0-.562.3-.624.711l-2.147,9.3a1.61,1.61,0,0,0,.849,1.822.723.723,0,0,0,.237,0c2.908-.075,4.992-.325,8.737-.325,2.259,0,9.049.337,12.169.337s3.507-4.331,2.234-4.73c-5.7-1.747-9.985-4.181-11.832-6.49a1.548,1.548,0,0,0-1.3-.624Z" transform="translate(-190.857 -147.679)" fill="#263238"/>
        <path id="Path_219" data-name="Path 219" d="M272.84,217c-.437,5.741-2.122,16.013-6.94,18.6a18.123,18.123,0,0,0,10.934,8.737c6.94,2.084,6-4.056,6-4.056-5.679-3.133-4.269-7.6-2.047-11.533Z" transform="translate(-184.139 -194.222)" fill="#ebb376"/>
        <path id="Path_220" data-name="Path 220" d="M274.256,220.8l4.693,6.952a18.8,18.8,0,0,0-1.348,2.871c-2.234-.974-4.705-4.406-4.281-6.9a8.1,8.1,0,0,1,.936-2.921Z" transform="translate(-182.31 -193.279)" opacity="0.2" style="isolation: isolate"/>
        <path id="Path_221" data-name="Path 221" d="M285.45,208.513c-3.557,1.248-3.058,5.13,2.5,12.344,3.744-2.908,5.954-9.823,4.181-12.157S288.595,207.389,285.45,208.513Z" transform="translate(-179.849 -196.631)" fill="#263238"/>
        <path id="Path_222" data-name="Path 222" d="M273.75,211.839c-1.148,5.529-2.134,9.336-1.523,12.868a12.219,12.219,0,0,0,1.373,3.744c4.069,7.227,14.116,6.315,17.873-.574.125-.212.237-.449.349-.674,3.17-6.315,4.793-16.949-1.423-21.68a10.459,10.459,0,0,0-16.65,6.241Z" transform="translate(-182.615 -197.61)" fill="#ebb376"/>
        <path id="Path_223" data-name="Path 223" d="M281.822,214.348c-.162.612,0,1.248.412,1.248a1.1,1.1,0,0,0,1.011-.886c.175-.6,0-1.173-.412-1.248S282.059,213.774,281.822,214.348Z" transform="translate(-180.203 -195.102)" fill="#263238"/>
        <path id="Path_224" data-name="Path 224" d="M287.292,215.85c-.162.6,0,1.173.424,1.248s.849-.287,1.011-.9,0-1.186-.424-1.248S287.455,215.251,287.292,215.85Z" transform="translate(-178.846 -194.732)" fill="#263238"/>
        <path id="Path_225" data-name="Path 225" d="M285.748,215.41a22.08,22.08,0,0,0,1.473,5.929,3.582,3.582,0,0,1-3.02-.25Z" transform="translate(-179.598 -194.616)" fill="#d58745"/>
        <path id="Path_226" data-name="Path 226" d="M280.838,212.286a.4.4,0,0,1-.212-.112.362.362,0,0,1,.062-.512,3.6,3.6,0,0,1,3.27-.674.337.337,0,0,1,.237.437h0a.362.362,0,0,1-.462.225h0a2.9,2.9,0,0,0-2.621.637.4.4,0,0,1-.275,0Z" transform="translate(-180.504 -195.748)" fill="#263238"/>
        <path id="Path_227" data-name="Path 227" d="M290.687,215.123a.362.362,0,0,1-.262-.287,2.908,2.908,0,0,0-1.56-2.134.387.387,0,0,1-.2-.487.362.362,0,0,1,.424-.212,3.744,3.744,0,0,1,2,2.683.362.362,0,0,1-.287.424h-.162Z" transform="translate(-178.496 -195.465)" fill="#263238"/>
        <path id="Path_228" data-name="Path 228" d="M282.706,203.061c3.133,2.122-2.247,9.024-9.336,14.653-2.883-3.744-3.357-11.008-1.061-12.818S279.973,201.214,282.706,203.061Z" transform="translate(-182.909 -197.869)" fill="#263238"/>
        <path id="Path_229" data-name="Path 229" d="M269.3,214.823a7.314,7.314,0,0,0,2.209,5.117c1.847,1.772,3.969.4,4.456-1.972.449-2.134,0-5.629-2.321-6.49a3.258,3.258,0,0,0-4.343,3.345Z" transform="translate(-183.297 -195.639)" fill="#ebb376"/>
        <path id="Path_230" data-name="Path 230" d="M279.48,219.82a5.379,5.379,0,0,0,4.306,3.557" transform="translate(-180.769 -193.522)" fill="none" stroke="#263238" stroke-linecap="round" stroke-linejoin="round" stroke-width="0.526"/>
        <path id="Path_231" data-name="Path 231" d="M297.921,208.162c-1.248.986-2.958,2.334-7.489,1.248s-7.688-4.618-9.511-3.982-4.805,3.869-4.805,3.869l-4.256-3.02a6.827,6.827,0,0,1,4.244-6.028c8.887-3.894,18.572,6.241,24.239-1C300.342,199.188,301.054,205.69,297.921,208.162Z" transform="translate(-182.66 -198.626)" fill="#263238"/>
        <path id="Path_232" data-name="Path 232" d="M287,201.4s4.793-.087,5.929-2.646a3.357,3.357,0,0,1-1.7,3.869C288.81,203.78,287,201.4,287,201.4Z" transform="translate(-178.903 -198.75)" fill="#263238"/>
        <path id="Path_233" data-name="Path 233" d="M289.11,209.491c1.6,0,10.347-2.1,8.737-9.061" transform="translate(-178.38 -198.333)" fill="none" stroke="#263238" stroke-miterlimit="10" stroke-width="0.25"/>
      </g>
    </g>
    <g id="freepik--character-1--inject-70" transform="translate(52.844 238.337)">
      <path id="Path_234" data-name="Path 234" d="M255.345,269.151c-.312-.474-2.671-.786-2.671-.786s-7.139,2.609-8.138,3.657-3.07,7.027-3.07,7.027h0l-2.346,2.1c-10.646,8.637-19.346,6.7-25.537,2.771l.612-1.71a38.929,38.929,0,0,1-12.419-20.981h0a6.852,6.852,0,0,0-1.073-2.771c-1.985-2.871-6.166-5.542-11.233-7.713a1.663,1.663,0,0,0,0-.212c-4.431-2.434-4.543-5.679-3.333-8.862.137-.349.275-.686.437-1.023s.225-.474.337-.711l.225-.412a10.559,10.559,0,0,0,12.107-6.89,6.967,6.967,0,0,0,.225-.724,27.572,27.572,0,0,0,1.1-10.484.387.387,0,0,0,.262.175.312.312,0,0,0,.15,0h0a.362.362,0,0,0,.212-.462,3.482,3.482,0,0,0-.649-1.123c.437-2.5.2-4.868-.886-5.891a3.932,3.932,0,0,0-1.061-.761,5.829,5.829,0,0,0,2.733-1.323c2.683-1.61,5.617-4.581,3.832-8.912l-1.46,2.109a18.719,18.719,0,0,0-.512-3.345,6.478,6.478,0,0,1-3.882,3.245,3.582,3.582,0,0,0,.2-3.208c-.7,2.671-5.292,3.532-5.417,3.557-4.718-.362-10.16-1.648-14.678,1.248a6.815,6.815,0,0,0-3.258,6.241c-1.248,1.623-.8,5.329.661,8.512a3.407,3.407,0,0,0-1.922,3.819,7.277,7.277,0,0,0,3,4.705,3.058,3.058,0,0,0,1.248.512c-.761,5.741-2.6,13.18-6.59,15.314v.15c-5.354-.8-10.222-.8-13.38.275l-.275-.225s-9.423-2.971-38.217,16.076c0,0,.125.649.374,1.7-7.639,5.3-28.257,21.543-33.961,45.868-.524.574-4.656,4.256-4.905,6.078s4.069,12.157,4.631,12.481,2.871-.886,2.871-.886,4.88-6.628,5.142-8.175-1.435-8.163-1.435-8.163l.087-.349c.736-2.5,6.353-19.134,32-35.646a12.329,12.329,0,0,0,1.248,1.56s14.353-4.169,22.741-7.2c-6,17.96-14.441,41.687-16,46.068-2.234,3.482-3.008,9.6-1,19.8-1.435,13.542-3.869,29.531-11.37,42.037,0,0-15.389-10.372-44.3-11.4l-6.64-2.971a16.538,16.538,0,0,0-1.173,1.435l-5.779-3.308.262-.412a.749.749,0,0,0-.275-.924l-7.227-5.954a1.61,1.61,0,0,0-2-.25.8.8,0,0,0-.162.187c-1.485,2.5-2.384,4.443-4.319,7.489-1.248,1.922-5.067,7.489-6.715,10.147s1.81,5.28,2.821,4.406c4.506-3.919,8.849-6.241,11.77-6.615a1.573,1.573,0,0,0,1.248-.711l.474-.749,6.553,3.495q-.162.624-.3,1.248l6.39,3s33.063,25.736,62.943,19.184c5.791-1.248,13.3-14.977,19.67-30.542A268.085,268.085,0,0,0,184.2,385.389s-2.609,23.34,28.17,62.78l3.357,5.891a14.42,14.42,0,0,0,1.847-.512L221.084,459l-.424.325a.761.761,0,0,0-.075.949l3.894,8.737a1.585,1.585,0,0,0,1.772.949.7.7,0,0,0,.212-.112c2.284-1.81,3.819-3.283,6.74-5.492,1.8-1.348,7.426-5.18,9.91-7.052s.2-5.579-1.048-5.13c-5.617,2.047-10.509,2.7-13.367,1.947a1.547,1.547,0,0,0-1.385.225l-.162.125-3.22-4.818.412-.449-2.7-6.378s-16.625-60.247-24.962-72A358.886,358.886,0,0,0,166.3,326.952c.924-4.356,1.323-7.639,1.011-9.249a14.969,14.969,0,0,0,1.61-.487c4.331-5.729,16.051-19.683,24.276-32.913,5.067,8.937,14.715,15.577,14.715,15.577l.849-2.4c18.922,8.737,32.7-9.2,35.509-13.268a7.413,7.413,0,0,1,1.385-.961c.7-.175,5.754-.9,6.877-2.172S255.657,269.626,255.345,269.151Z" transform="translate(-42.339 -201.89)" fill="#fff"/>
      <g id="Group_181" data-name="Group 181" transform="translate(0.025)" opacity="0.3">
        <path id="Path_235" data-name="Path 235" d="M59.291,329,68,333.992l-3.857,6.49L54.86,335.54Z" transform="translate(-39.257 -170.351)" fill="#ebb376"/>
        <path id="Path_236" data-name="Path 236" d="M58.611,338.34l4.88-7.826a.749.749,0,0,0-.275-.924l-7.227-5.953a1.61,1.61,0,0,0-2-.25.8.8,0,0,0-.162.187c-1.485,2.5-2.384,4.443-4.319,7.489-1.248,1.922-5.067,7.489-6.715,10.147s1.81,5.28,2.821,4.406c4.506-3.919,8.849-6.241,11.77-6.615a1.573,1.573,0,0,0,1.223-.662Z" transform="translate(-42.359 -171.803)" fill="#263238"/>
        <path id="Path_237" data-name="Path 237" d="M129.714,295.5c-2.072,14.466-2.072,40.726-13.205,59.3,0,0-15.389-10.372-44.3-11.4l-6.64-2.971a20.532,20.532,0,0,0-4.843,9.561l6.39,3s33.063,25.736,62.943,19.184c13.6-2.921,36.645-74.488,32.177-77.9S137.889,292.577,129.714,295.5Z" transform="translate(-37.801 -179.435)" fill="#ffc100"/>
        <path id="Path_238" data-name="Path 238" d="M129.714,295.5c-2.072,14.466-2.072,40.726-13.205,59.3,0,0-15.389-10.372-44.3-11.4l-6.64-2.971a20.532,20.532,0,0,0-4.843,9.561l6.39,3s33.063,25.736,62.943,19.184c13.6-2.921,36.645-74.488,32.177-77.9S137.889,292.577,129.714,295.5Z" transform="translate(-37.801 -179.435)" opacity="0.5"/>
        <path id="Path_239" data-name="Path 239" d="M187.381,411.411l-5.791-9.024,6.565-3.507,4.88,7.289Z" transform="translate(-7.813 -153.013)" fill="#ebb376"/>
        <path id="Path_240" data-name="Path 240" d="M191.923,404.567l-6.652,4.992a.761.761,0,0,0-.075.949l3.894,8.737a1.585,1.585,0,0,0,1.772.949.7.7,0,0,0,.212-.112c2.284-1.81,3.819-3.283,6.74-5.492,1.8-1.348,7.426-5.18,9.91-7.052s.2-5.579-1.048-5.13c-5.617,2.047-10.509,2.7-13.367,1.947A1.548,1.548,0,0,0,191.923,404.567Z" transform="translate(-6.951 -152.147)" fill="#263238"/>
        <path id="Path_241" data-name="Path 241" d="M179,349.055c8.387,11.757,24.962,72,24.962,72l2.671,6.34a16.5,16.5,0,0,1-8.612,4.893l-3.357-5.891c-30.779-39.441-28.17-62.78-28.17-62.78-39.441-24.738-49.675-40.452-51.473-48.9C106.4,274.243,139.7,294.886,139.7,294.886S159.032,315.243,179,349.055Z" transform="translate(-24.683 -180.122)" fill="#ffc100"/>
        <path id="Path_242" data-name="Path 242" d="M179,349.055c8.387,11.757,24.962,72,24.962,72l2.671,6.34a16.5,16.5,0,0,1-8.612,4.893l-3.357-5.891c-30.779-39.441-28.17-62.78-28.17-62.78-39.441-24.738-49.675-40.452-51.473-48.9C106.4,274.243,139.7,294.886,139.7,294.886S159.032,315.243,179,349.055Z" transform="translate(-24.683 -180.122)" opacity="0.3"/>
        <path id="Path_243" data-name="Path 243" d="M198.46,269.578l4.281-3.744s2.072-5.966,3.07-7.027,8.138-3.657,8.138-3.657,2.359.312,2.671.786-1.66,10.659-2.8,11.932-6.241,2-6.877,2.172-8.275,6.715-8.275,6.715Z" transform="translate(-3.627 -188.675)" fill="#ebb376"/>
        <path id="Path_244" data-name="Path 244" d="M208.788,263.71c-13.23,12.481-23.714,8.387-30.342,3.158-1.048,3.894-3.832,10.272-4.356,14.266,22.329,12.356,38.055-13.055,38.055-13.055Z" transform="translate(-9.674 -186.551)" fill="#ebb376"/>
        <path id="Path_245" data-name="Path 245" d="M172.107,249.43a38.929,38.929,0,0,0,12.419,20.981l-6.241,17.673S165.8,279.51,161.76,268.751Z" transform="translate(-12.733 -190.094)" fill="#ffc100"/>
        <path id="Path_246" data-name="Path 246" d="M172.107,249.43a38.929,38.929,0,0,0,12.419,20.981l-6.241,17.673S165.8,279.51,161.76,268.751Z" transform="translate(-12.733 -190.094)" fill="#fff" opacity="0.1"/>
        <path id="Path_247" data-name="Path 247" d="M150.856,308.557s-11.57,4.593-35.7-1.073c0,0,20.557-57.5,22.316-66.475,1.835-9.4,37.905-1.61,45.107,8.812C190.472,261.229,158.645,298.21,150.856,308.557Z" transform="translate(-24.296 -193.231)" fill="#ffc100"/>
        <path id="Path_248" data-name="Path 248" d="M150.856,308.557s-11.57,4.593-35.7-1.073c0,0,20.557-57.5,22.316-66.475,1.835-9.4,37.905-1.61,45.107,8.812C190.472,261.229,158.645,298.21,150.856,308.557Z" transform="translate(-24.296 -193.231)" fill="#fff" opacity="0.6"/>
        <path id="Path_249" data-name="Path 249" d="M87.093,285.657l-1.623,5.929s1.7,6.628,1.435,8.163-5.142,8.175-5.142,8.175-2.309,1.136-2.871.886-4.88-10.609-4.631-12.481,4.381-5.5,4.905-6.078,4.905-10.16,4.905-10.16Z" transform="translate(-34.446 -182.487)" fill="#ebb376"/>
        <path id="Path_250" data-name="Path 250" d="M115.022,250s-29.78,17.723-36.832,47.766l6.241,1.248s4.493-19.209,34.773-37.681Z" transform="translate(-33.469 -189.953)" fill="#ebb376"/>
        <path id="Path_251" data-name="Path 251" d="M143.317,237.323s-9.423-2.971-38.217,16.076c0,0,1.872,10.222,6.078,14.4,0,0,23.789-6.9,28.02-9.423S152.678,244.662,143.317,237.323Z" transform="translate(-26.792 -193.14)" fill="#ffc100"/>
        <path id="Path_252" data-name="Path 252" d="M143.317,237.323s-9.423-2.971-38.217,16.076c0,0,1.872,10.222,6.078,14.4,0,0,23.789-6.9,28.02-9.423S152.678,244.662,143.317,237.323Z" transform="translate(-26.792 -193.14)" fill="#fff" opacity="0.4"/>
        <path id="Path_253" data-name="Path 253" d="M153.55,222.23c-.437,5.741-2.122,16.013-6.94,18.6a18.123,18.123,0,0,0,10.934,8.737c6.94,2.084,6-4.056,6-4.056-5.679-3.12-4.281-7.589-2.047-11.533Z" transform="translate(-16.492 -196.843)" fill="#ebb376"/>
        <path id="Path_254" data-name="Path 254" d="M154.956,226.07l4.705,6.952a17.558,17.558,0,0,0-1.348,2.858c-2.234-.974-4.718-4.406-4.294-6.9a8.462,8.462,0,0,1,.936-2.908Z" transform="translate(-14.666 -195.89)" opacity="0.2" style="isolation: isolate"/>
        <path id="Path_255" data-name="Path 255" d="M163.459,212.769c-3.308,1.847-2.2,5.567,4.381,11.807,3.2-3.482,4.306-10.659,2.172-12.681S166.342,211.172,163.459,212.769Z" transform="translate(-12.76 -199.664)" fill="#263238"/>
        <path id="Path_256" data-name="Path 256" d="M151.982,218.134c-.25,5.642-.624,9.548.562,12.931a11.582,11.582,0,0,0,1.96,3.507c5.167,6.49,14.977,3.982,17.549-3.42a6.967,6.967,0,0,0,.225-.724c2.122-6.74,2.022-17.474-4.868-21.218a10.459,10.459,0,0,0-15.427,8.874Z" transform="translate(-15.224 -200.386)" fill="#ebb376"/>
        <path id="Path_257" data-name="Path 257" d="M160.862,218.951a1.117,1.117,0,0,0,.624,1.248c.4.1.774-.424.849-1.048a1.089,1.089,0,0,0-.612-1.248C161.323,217.8,161.036,218.339,160.862,218.951Z" transform="translate(-12.958 -197.92)" fill="#263238"/>
        <path id="Path_258" data-name="Path 258" d="M166.51,219.56c0,.612.212,1.148.612,1.186s.8-.412.861-1.036-.212-1.161-.624-1.248S166.572,218.936,166.51,219.56Z" transform="translate(-11.555 -197.78)" fill="#263238"/>
        <path id="Path_259" data-name="Path 259" d="M164.762,219.38a22.3,22.3,0,0,0,2.409,5.6,3.582,3.582,0,0,1-3.02.25Z" transform="translate(-12.14 -197.55)" fill="#d58745"/>
        <path id="Path_260" data-name="Path 260" d="M159.576,217.159a.287.287,0,0,1-.225-.075.362.362,0,0,1,0-.512,3.607,3.607,0,0,1,3.12-1.248.349.349,0,0,1,.3.4h0a.374.374,0,0,1-.424.3h0a2.933,2.933,0,0,0-2.5.974A.4.4,0,0,1,159.576,217.159Z" transform="translate(-13.357 -198.562)" fill="#263238"/>
        <path id="Path_261" data-name="Path 261" d="M169.771,218.262a.387.387,0,0,1-.312-.237,2.871,2.871,0,0,0-1.872-1.86.371.371,0,0,1,.162-.724,3.67,3.67,0,0,1,2.4,2.334.362.362,0,0,1-.212.462h0A.312.312,0,0,1,169.771,218.262Z" transform="translate(-11.358 -198.529)" fill="#263238"/>
        <path id="Path_262" data-name="Path 262" d="M159.771,207.925c3.432,1.585-.774,9.261-6.877,15.951-3.432-3.22-5.067-10.322-3.083-12.481S156.775,206.54,159.771,207.925Z" transform="translate(-15.911 -200.487)" fill="#263238"/>
        <path id="Path_263" data-name="Path 263" d="M148.529,221.484a7.277,7.277,0,0,0,3,4.705c2.109,1.448,3.982-.237,4.094-2.659.087-2.184-.9-5.554-3.345-6.041a3.258,3.258,0,0,0-3.744,3.994Z" transform="translate(-16.04 -198.032)" fill="#ebb376"/>
        <path id="Path_264" data-name="Path 264" d="M159.47,224.68a5.367,5.367,0,0,0,4.818,2.821" transform="translate(-13.301 -196.235)" fill="none" stroke="#263238" stroke-linecap="round" stroke-linejoin="round" stroke-width="0.526"/>
        <path id="Path_265" data-name="Path 265" d="M175.585,211.139c-1.073,1.173-2.5,2.783-7.2,2.371s-8.325-3.32-9.985-2.409-4.119,4.581-4.119,4.581L149.6,213.4a6.815,6.815,0,0,1,3.22-6.628c8.15-5.28,19.321,3.145,23.777-4.88C176.547,201.89,178.281,208.193,175.585,211.139Z" transform="translate(-15.762 -201.89)" fill="#263238"/>
        <path id="Path_266" data-name="Path 266" d="M163.88,205.477s4.718-.849,5.429-3.557A3.332,3.332,0,0,1,168.248,206C166.027,207.549,163.88,205.477,163.88,205.477Z" transform="translate(-12.207 -201.883)" fill="#263238"/>
        <path id="Path_267" data-name="Path 267" d="M167,213.214c1.56-.25,9.873-3.744,7.139-10.334" transform="translate(-11.433 -201.644)" fill="none" stroke="#263238" stroke-miterlimit="10" stroke-width="0.25"/>
      </g>
    </g>
    <g id="freepik--animation-timeline--inject-70" transform="translate(89.927 88.537)">
      <rect id="Rectangle_57" data-name="Rectangle 57" width="444.206" height="17.973" transform="translate(0 13.143)" fill="#ffc100"/>
      <rect id="Rectangle_58" data-name="Rectangle 58" width="444.206" height="17.973" transform="translate(0 49.089)" fill="#ffc100"/>
      <g id="Group_182" data-name="Group 182" transform="translate(0 13.143)" opacity="0.85">
        <rect id="Rectangle_59" data-name="Rectangle 59" width="444.206" height="17.973" fill="#fff"/>
        <rect id="Rectangle_60" data-name="Rectangle 60" width="444.206" height="17.973" transform="translate(0 35.946)" fill="#fff"/>
      </g>
      <path id="Path_268" data-name="Path 268" d="M386.429,81.87h-11.57c-1.111,0-1.71,1.8-.986,2.971l5.816,9.548a1.1,1.1,0,0,0,2,0l5.741-9.548C388.139,83.655,387.54,81.87,386.429,81.87Z" transform="translate(2.76 -81.87)" fill="#ffc100"/>
      <path id="Path_269" data-name="Path 269" d="M386.429,81.87h-11.57c-1.111,0-1.71,1.8-.986,2.971l5.816,9.548a1.1,1.1,0,0,0,2,0l5.741-9.548C388.139,83.655,387.54,81.87,386.429,81.87Z" transform="translate(2.76 -81.87)" fill="#fff" opacity="0.2"/>
      <path id="Path_270" data-name="Path 270" d="M329,91.9a1.1,1.1,0,0,0,2,0" transform="translate(-8.295 -79.381)" fill="#ffc100"/>
      <path id="Path_271" data-name="Path 271" d="M329,91.9a1.1,1.1,0,0,0,2,0" transform="translate(-8.295 -79.381)" fill="#fff" opacity="0.2"/>
      <line id="Line_66" data-name="Line 66" y2="71.879" transform="translate(383.41 13.155)" fill="none" stroke="#263238" stroke-miterlimit="10" stroke-width="1"/>
      <rect id="Rectangle_61" data-name="Rectangle 61" width="8.762" height="8.762" rx="1.52" transform="translate(377.213 67.049) rotate(-45)" fill="#ffc100" stroke="#ffc100" stroke-miterlimit="10" stroke-width="1"/>
      <line id="Line_67" data-name="Line 67" x2="101.572" transform="translate(0 31.116)" fill="none" stroke="#ffc100" stroke-miterlimit="10" stroke-width="2"/>
      <line id="Line_68" data-name="Line 68" x2="101.572" transform="translate(0 31.116)" fill="none" stroke="#000" stroke-miterlimit="10" stroke-width="2" opacity="0.4"/>
      <line id="Line_69" data-name="Line 69" x2="240.338" transform="translate(0 49.089)" fill="none" stroke="#ffc100" stroke-miterlimit="10" stroke-width="2"/>
      <line id="Line_70" data-name="Line 70" x2="240.338" transform="translate(0 49.089)" fill="none" stroke="#000" stroke-miterlimit="10" stroke-width="2" opacity="0.4"/>
      <line id="Line_71" data-name="Line 71" x2="378.031" transform="translate(0 67.062)" fill="none" stroke="#ffc100" stroke-miterlimit="10" stroke-width="2"/>
      <line id="Line_72" data-name="Line 72" x2="378.031" transform="translate(0 67.062)" fill="none" stroke="#000" stroke-miterlimit="10" stroke-width="2" opacity="0.4"/>
      <line id="Line_73" data-name="Line 73" y2="2.496" transform="translate(245.193 13.155)" fill="none" stroke="#263238" stroke-miterlimit="10" stroke-width="1"/>
      <line id="Line_74" data-name="Line 74" y2="49.126" transform="translate(245.193 20.831)" fill="none" stroke="#263238" stroke-miterlimit="10" stroke-width="1" stroke-dasharray="4.144 4.144"/>
      <line id="Line_75" data-name="Line 75" y2="2.496" transform="translate(245.193 72.553)" fill="none" stroke="#263238" stroke-miterlimit="10" stroke-width="1"/>
      <rect id="Rectangle_62" data-name="Rectangle 62" width="8.762" height="8.762" rx="1.52" transform="translate(238.999 49.092) rotate(-45)" fill="#fff"/>
      <rect id="Rectangle_63" data-name="Rectangle 63" width="8.762" height="8.762" rx="1.52" transform="translate(238.999 49.092) rotate(-45)" fill="none" stroke="#ffc100" stroke-miterlimit="10" stroke-width="1"/>
      <line id="Line_76" data-name="Line 76" y2="2.496" transform="translate(106.989 13.155)" fill="none" stroke="#263238" stroke-miterlimit="10" stroke-width="1"/>
      <line id="Line_77" data-name="Line 77" y2="59.161" transform="translate(106.989 20.806)" fill="none" stroke="#263238" stroke-miterlimit="10" stroke-width="1" stroke-dasharray="4.122 4.122"/>
      <line id="Line_78" data-name="Line 78" y2="2.496" transform="translate(106.989 82.538)" fill="none" stroke="#263238" stroke-miterlimit="10" stroke-width="1"/>
      <rect id="Rectangle_64" data-name="Rectangle 64" width="8.762" height="8.762" rx="1.52" transform="translate(100.793 31.114) rotate(-45)" fill="#fff"/>
      <rect id="Rectangle_65" data-name="Rectangle 65" width="8.762" height="8.762" rx="1.52" transform="translate(100.793 31.114) rotate(-45)" fill="none" stroke="#ffc100" stroke-miterlimit="10" stroke-width="1"/>
    </g>
    <g id="freepik--Cursor--inject-70" transform="translate(479.441 163.799)">
      <path id="Path_272" data-name="Path 272" d="M407.358,152.979,384.13,142.17l.849,25.6,4.968-6.465,5.866,8.874,9.523-6.291-5.866-8.874Z" transform="translate(-384.13 -142.17)" fill="#fff" stroke="#263238" stroke-linecap="round" stroke-linejoin="round" stroke-width="1"/>
    </g>
  </g>
</svg>
