<svg xmlns="http://www.w3.org/2000/svg" width="56.274" height="39.898" viewBox="0 0 56.274 39.898">
  <path id="Icon_simple-upwork" data-name="Icon simple-upwork" d="M43.521,29.794a11.5,11.5,0,0,1-7.208-2.877l.535-2.523.019-.1c.485-2.68,1.991-7.175,6.657-7.175a6.337,6.337,0,1,1,0,12.673Zm0-19.086c-5.953,0-10.575,3.866-12.451,10.237A52.359,52.359,0,0,1,24.77,7.13H18.355V23.805a5.97,5.97,0,1,1-11.939,0V7.129H0V23.805a12.385,12.385,0,1,0,24.77,0v-2.79A39.353,39.353,0,0,0,29.4,28.567l-3.923,18.46h6.558l2.844-13.388a15.81,15.81,0,0,0,8.643,2.6,12.766,12.766,0,0,0,0-25.532Z" transform="translate(0 -7.13)" fill="#4a4a4a"/>
</svg>
